#N canvas 77 25 846 658 12;
#X obj 19 542 master_out;
#X obj 19 195 BPM-engine;
#X obj 19 48 tgl 30 0 mstrswtch mstrswtchinit empty 0 -10 0 12 #ff8300 #000000 #000000 0 1;
#X obj 177 172 r mstrswtch;
#X floatatom 19 86 5 1 1000 1 - bpminit mstrbpm 24;
#X obj 19 172 r mstrbpm;
#X obj 109 508 catch~ all;
#N canvas 32 25 404 398 preset 0;
#X obj 14 13 loadbang;
#X text 77 12 Presets;
#X msg 14 36 \; break1init symbol ./samples/DNB_BREAK_79.wav \; break2init symbol ./samples/DNB_BREAK_110.wav \; break3init symbol ./samples/DNB_BREAK_115.wav \; sample1init symbol ./samples/TerroristVoxHit.wav \; sample2init symbol ./samples/WheelUpSignal.wav \; sample3init symbol ./samples/ShapeBeeps.wav \; sample4init symbol ./samples/MetalMentasm.wav \; sample5init symbol ./samples/MySoundStretchVox.wav \; basenoteinit 40 \; gloscale 7 \; basstoginit 0 \; stabstoginit 0 \; breakstoginit 1 \; breaksampinit 1 \; bpminit 174 \; stab1ampinit 0.3 \; stab1pres 10 5 700 1 \; stab2ampinit 0.7 \; stab2pres 15 15 250 2 \; stab3ampinit 0.6 \; stab3pres 70 25 500 0 \; stab4ampinit 0.3 \; stab4pres 35 25 350 2 \;;
#X connect 0 0 2 0;
#X restore 19 19 pd preset;
#X obj 19 508 catch~ left;
#X obj 187 508 catch~ right;
#X floatatom 19 122 5 1 1000 1 - basenoteinit basenote 24;
#X obj 265 435 tgl 19 0 empty stabstoginit On/Off 22 10 0 10 #fcfcfc #000000 #000000 0 1;
#X obj 131 290 s 16ths;
#X obj 82 290 s 8ths;
#N canvas 46 227 981 348 tonalseq 0;
#X obj 230 59 scaleculator;
#X floatatom 230 294 2 0 0 1 Index - - 0;
#X floatatom 423 294 4 0 0 1 Note - - 0;
#X floatatom 423 34 2 0 0 1 Arr.\ Pos. - - 0;
#X obj 12 73 bng 19 250 50 0 empty empty empty 0 -10 0 12 #ff8300 #000000 #000000;
#X obj 715 82 subbass;
#X obj 715 265 throw~ all;
#X obj 12 98 frauke;
#X obj 46 73 bng 19 250 50 0 empty tonalnewpat New\ pattern 0 -7 0 8 #fcfcfc #000000 #000000;
#X text 125 98 Frauke sequencer, f 11;
#X obj 898 34 r basspres;
#X obj 230 34 r basenote;
#X obj 326 34 r gloscale;
#X obj 715 242 *~;
#X text 774 217 On/Off;
#X obj 12 34 r fibon;
#X obj 230 317 s tonalsclindex;
#X obj 80 73 r tonalsclindex;
#X obj 12 176 s tonalcallpos;
#X obj 423 9 r tonalcallpos;
#X obj 423 317 s tonalposnote;
#X obj 715 34 r tonalposnote;
#X obj 733 218 inlet;
#X obj 535 110 throw~ all;
#N canvas 397 318 863 325 stabs 0;
#X obj 12 20 inlet;
#X obj 12 289 outlet~;
#X obj 128 69 minitoner;
#X obj 128 234 minitoner;
#X obj 495 69 minitoner;
#X obj 495 234 minitoner;
#X obj 12 44 s \$0-stoner;
#X obj 128 20 r \$0-stoner;
#X obj 128 184 r \$0-stoner;
#X obj 495 20 r \$0-stoner;
#X obj 495 184 r \$0-stoner;
#X obj 128 124 throw~ sout;
#X obj 495 124 throw~ sout;
#X obj 128 289 throw~ sout;
#X obj 495 289 throw~ sout;
#X obj 12 82 catch~ sout;
#X obj 254 20 r stab1ampinit;
#X obj 381 20 r stab1pres;
#X obj 748 20 r stab2pres;
#X obj 748 184 r stab4pres;
#X obj 381 184 r stab3pres;
#X obj 254 184 r stab3ampinit;
#X obj 621 184 r stab4ampinit;
#X obj 621 20 r stab2ampinit;
#X obj 12 240 clip~ -1 1;
#X obj 12 264 *~ 0.7;
#X obj 30 111 inlet;
#X obj 12 136 *~;
#N canvas 558 36 385 540 sfxchain 0;
#X obj 34 301 throw~ sout;
#X obj 34 42 delwrite~ \$0-sdub 300;
#X obj 52 123 r fibon;
#X obj 52 172 line;
#X floatatom 52 196 5 0 0 0 - - - 0;
#X obj 34 220 *~;
#X obj 14 382 expr~ atan($v1);
#X obj 212 422 line;
#X floatatom 212 446 5 0 0 0 - - - 0;
#X obj 14 10 inlet~;
#X obj 212 374 r fibon;
#X obj 14 500 outlet~;
#X obj 84 500 throw~ all;
#X obj 254 500 throw~ right;
#X obj 169 500 throw~ left;
#X obj 84 473 rev2~ 89 65 250 10, f 37;
#X obj 34 67 delread~ \$0-sdub 280;
#X obj 14 334 hip~ 125;
#X obj 53 249 sig~ 300;
#X obj 34 274 vcf~ 4;
#X msg 212 398 35 \, 95 1400;
#X msg 52 148 0.5 \, 0.99 350;
#X obj 14 358 *~ 0.6;
#X obj 34 91 hip~ 250;
#X connect 2 0 21 0;
#X connect 3 0 4 0;
#X connect 4 0 5 1;
#X connect 5 0 19 0;
#X connect 6 0 11 0;
#X connect 6 0 15 0;
#X connect 7 0 8 0;
#X connect 8 0 15 2;
#X connect 9 0 1 0;
#X connect 9 0 17 0;
#X connect 10 0 20 0;
#X connect 15 0 12 0;
#X connect 15 1 14 0;
#X connect 15 2 13 0;
#X connect 16 0 23 0;
#X connect 17 0 22 0;
#X connect 18 0 19 1;
#X connect 19 0 0 0;
#X connect 20 0 7 0;
#X connect 21 0 3 0;
#X connect 22 0 6 0;
#X connect 23 0 5 0;
#X restore 12 163 pd sfxchain;
#X obj 624 44 hsl 68 19 0 1 0 0 empty empty empty -2 -10 0 12 #fcfcfc #000000 #000000 0 1;
#X obj 624 209 hsl 68 19 0 1 0 0 empty empty empty -2 -10 0 12 #fcfcfc #000000 #000000 0 1;
#X obj 257 44 hsl 68 19 0 1 0 0 empty empty empty -2 -10 0 12 #fcfcfc #000000 #000000 0 1;
#X obj 257 209 hsl 68 19 0 1 0 0 empty empty empty -2 -10 0 12 #fcfcfc #000000 #000000 0 1;
#X obj 495 209 + 7;
#X obj 128 44 + 0;
#X obj 128 209 - 5;
#X obj 495 44 -7;
#X connect 0 0 6 0;
#X connect 2 0 11 0;
#X connect 3 0 13 0;
#X connect 4 0 12 0;
#X connect 5 0 14 0;
#X connect 7 0 34 0;
#X connect 8 0 35 0;
#X connect 9 0 36 0;
#X connect 10 0 33 0;
#X connect 15 0 27 0;
#X connect 16 0 31 0;
#X connect 17 0 2 2;
#X connect 18 0 4 2;
#X connect 19 0 5 2;
#X connect 20 0 3 2;
#X connect 21 0 32 0;
#X connect 22 0 30 0;
#X connect 23 0 29 0;
#X connect 24 0 25 0;
#X connect 25 0 1 0;
#X connect 26 0 27 1;
#X connect 27 0 28 0;
#X connect 28 0 24 0;
#X connect 29 0 4 1;
#X connect 30 0 5 1;
#X connect 31 0 2 1;
#X connect 32 0 3 1;
#X connect 33 0 5 0;
#X connect 34 0 2 0;
#X connect 35 0 3 0;
#X connect 36 0 4 0;
#X restore 535 85 pd stabs;
#X obj 588 58 inlet;
#X obj 535 34 r tonalposnote;
#X obj 715 58 - 12;
#X text 600 84 Add. Synth.;
#X text 635 57 On/Off;
#X text 751 57 Down one octave;
#X connect 0 0 1 0;
#X connect 0 1 2 0;
#X connect 1 0 16 0;
#X connect 2 0 20 0;
#X connect 3 0 0 2;
#X connect 4 0 7 0;
#X connect 5 0 13 0;
#X connect 7 0 18 0;
#X connect 8 0 7 1;
#X connect 10 0 5 1;
#X connect 11 0 0 0;
#X connect 12 0 0 1;
#X connect 13 0 6 0;
#X connect 15 0 4 0;
#X connect 17 0 7 2;
#X connect 19 0 3 0;
#X connect 21 0 27 0;
#X connect 22 0 13 1;
#X connect 24 0 23 0;
#X connect 25 0 24 1;
#X connect 26 0 24 0;
#X connect 27 0 5 0;
#X restore 265 458 pd tonalseq;
#X f 12;
#X obj 346 435 tgl 19 0 empty basstoginit On/Off 22 10 0 10 #fcfcfc #000000 #000000 0 1;
#N canvas 45 25 1053 679 fibonacciarranger 0;
#X obj 139 570 bng 15 250 50 0 empty empty New\ pattern 17 7 0 10 #fcfcfc #000000 #000000;
#X obj 139 462 i;
#X obj 139 486 + 1;
#X obj 256 570 bng 15 250 50 0 empty empty New\ pattern 17 7 0 10 #fcfcfc #000000 #000000;
#X obj 22 41 i;
#X obj 22 65 + 1;
#X obj 139 534 sel 0;
#X obj 139 510 mod 3;
#X obj 256 462 i;
#X obj 256 486 + 1;
#X obj 256 534 sel 0;
#X obj 256 510 mod 5;
#X obj 22 462 i;
#X obj 22 486 + 1;
#X obj 22 534 sel 0;
#X obj 22 570 tgl 15 0 empty empty ON/OFF 17 7 0 10 #fcfcfc #000000 #000000 0 1;
#X text 20 613 Trigger new pattern generation on breaks and tonal elements, f 49;
#X obj 22 590 s blipsvolinit;
#X obj 22 12 inlet;
#X obj 22 205 hradio 19 1 0 8 empty empty empty 0 -10 0 12 #fcfcfc #000000 #000000 0;
#X floatatom 72 529 2 0 0 0 - - - 0;
#X floatatom 189 529 2 0 0 0 - - - 0;
#X floatatom 306 529 2 0 0 0 - - - 0;
#X obj 72 41 i;
#X obj 72 65 + 1;
#X obj 72 113 sel 0;
#X msg 72 139 \; mstrswtchinit 0;
#X obj 22 510 mod 2;
#X obj 139 590 s breaksnewpat;
#X obj 256 590 s tonalnewpat;
#X obj 22 231 + 1;
#X obj 22 89 mod 8;
#X obj 22 438 r fibarrchn;
#X obj 139 438 r fibarrchn;
#X obj 256 438 r fibarrchn;
#X obj 302 307 s fibarrchn;
#X obj 698 307 s fibarrchnoff;
#X obj 22 257 sel 1 2 3 5 8, f 97;
#X obj 364 438 r fibarrchnoff;
#X obj 364 486 s breakstoginit;
#X obj 500 486 s basspres;
#X obj 500 438 r fibarrchn;
#X obj 614 438 r fibarrchnoff;
#X text 72 175 Stop track;
#X msg 614 462 14 2750 1 1;
#X floatatom 128 108 3 0 0 0 - - - 0;
#X obj 734 438 r fibarrchnoff;
#X msg 734 462 \; stabstoginit 0;
#X msg 500 462 3 1350 1.5 1.3;
#X obj 878 161 r fibarrchnoff;
#X obj 878 187 i;
#X obj 878 211 + 1;
#X obj 878 259 sel 0;
#X obj 878 283 bng 19 250 50 0 empty empty empty 0 -10 0 12 #fcfcfc #000000 #000000;
#X obj 878 307 s fibarrchnoffer;
#X obj 878 235 mod 4;
#X obj 878 438 r fibarrchnoffer;
#X msg 22 336 \; stabstoginit 1 \; basstoginit 0 \; breakstoginit 1 \; breaksampinit 1;
#X msg 157 336 \; stabstoginit 1 \; basstoginit 0 \; breakstoginit 0 \; breaksampinit 1;
#X msg 292 336 \; stabstoginit 1 \; basstoginit 1 \; breakstoginit 1 \; breaksampinit 1;
#X msg 427 336 \; stabstoginit 1 \; basstoginit 1 \; breakstoginit 0 \; breaksampinit 1;
#X msg 562 336 \; stabstoginit 1 \; basstoginit 1 \; breakstoginit 0 \; breaksampinit 1;
#X msg 878 462 \; breaksampinit 0;
#X obj 698 283 bng 19 250 50 0 empty empty empty 0 -10 0 12 #fcfcfc #000000 #000000;
#X floatatom 928 254 2 0 0 0 - - - 0;
#X obj 72 89 mod 34;
#X text 697 335 Presets for track sections. Fibonacci sequence based arrangement loops., f 20;
#X text 878 507 Giv'em a break every now and then!, f 20;
#X text 731 507 Switch off stabs on Non-Fibonacci numbers, f 18;
#X text 501 507 Alter bassline preset on Non-Fibonacci numbers. Reset on Fibonacci numbers, f 28;
#X text 361 507 Change break on Non-Fibonacci numbers, f 19;
#X connect 0 0 28 0;
#X connect 1 0 2 0;
#X connect 2 0 7 0;
#X connect 3 0 29 0;
#X connect 4 0 5 0;
#X connect 5 0 31 0;
#X connect 6 0 0 0;
#X connect 7 0 1 1;
#X connect 7 0 6 0;
#X connect 7 0 21 0;
#X connect 8 0 9 0;
#X connect 9 0 11 0;
#X connect 10 0 3 0;
#X connect 11 0 8 1;
#X connect 11 0 10 0;
#X connect 11 0 22 0;
#X connect 12 0 13 0;
#X connect 13 0 27 0;
#X connect 14 0 15 0;
#X connect 15 0 17 0;
#X connect 18 0 4 0;
#X connect 18 0 23 0;
#X connect 19 0 30 0;
#X connect 23 0 24 0;
#X connect 24 0 65 0;
#X connect 25 0 26 0;
#X connect 27 0 12 1;
#X connect 27 0 14 0;
#X connect 27 0 20 0;
#X connect 30 0 37 0;
#X connect 31 0 4 1;
#X connect 31 0 19 0;
#X connect 32 0 12 0;
#X connect 33 0 1 0;
#X connect 34 0 8 0;
#X connect 37 0 57 0;
#X connect 37 0 35 0;
#X connect 37 1 58 0;
#X connect 37 1 35 0;
#X connect 37 2 59 0;
#X connect 37 2 35 0;
#X connect 37 3 60 0;
#X connect 37 3 35 0;
#X connect 37 4 61 0;
#X connect 37 4 35 0;
#X connect 37 5 63 0;
#X connect 38 0 39 0;
#X connect 41 0 48 0;
#X connect 42 0 44 0;
#X connect 44 0 40 0;
#X connect 46 0 47 0;
#X connect 48 0 40 0;
#X connect 49 0 50 0;
#X connect 50 0 51 0;
#X connect 51 0 55 0;
#X connect 52 0 53 0;
#X connect 53 0 54 0;
#X connect 55 0 52 0;
#X connect 55 0 50 1;
#X connect 55 0 64 0;
#X connect 56 0 62 0;
#X connect 63 0 36 0;
#X connect 65 0 23 1;
#X connect 65 0 25 0;
#X connect 65 0 45 0;
#X restore 337 349 pd fibonacciarranger;
#N canvas 295 320 339 289 fibonacciseq 0;
#X obj 24 18 inlet;
#X obj 24 45 i;
#X obj 24 69 + 1;
#X obj 24 118 + 1;
#X obj 24 143 sel 1 2 3 5 8 13 21 34 55;
#X obj 176 231 bng 19 250 50 0 empty empty empty 0 -10 0 12 #fcfcfc #000000 #000000;
#X obj 24 93 mod 55;
#X obj 176 255 outlet;
#X obj 24 230 bng 19 250 50 0 empty empty empty 0 -10 0 12 #fcfcfc #000000 #000000;
#X obj 24 254 outlet;
#X obj 232 231 bng 19 250 50 0 empty empty empty 0 -10 0 12 #fcfcfc #000000 #000000;
#X obj 232 255 outlet;
#X text 86 17 Fibonacci sequencer. Uses values from 1-55 and outputs bangs on no.s of the fibonacci scale. Last value on scale bangs to second outlet (e.g. for arrangement changes). All other values send bangs to third outlet., f 34;
#X connect 0 0 1 0;
#X connect 1 0 2 0;
#X connect 2 0 6 0;
#X connect 3 0 4 0;
#X connect 4 0 8 0;
#X connect 4 1 8 0;
#X connect 4 2 8 0;
#X connect 4 3 8 0;
#X connect 4 4 8 0;
#X connect 4 5 8 0;
#X connect 4 6 8 0;
#X connect 4 7 8 0;
#X connect 4 8 8 0;
#X connect 4 8 5 0;
#X connect 4 9 10 0;
#X connect 5 0 7 0;
#X connect 6 0 1 1;
#X connect 6 0 3 0;
#X connect 8 0 9 0;
#X connect 10 0 11 0;
#X restore 19 350 pd fibonacciseq;
#X f 17;
#X obj 19 374 s fibon;
#X obj 135 374 s fiboff;
#X obj 77 374 s fib55;
#X obj 337 326 r fib55;
#N canvas 86 45 1092 421 sounds 0;
#X obj 20 21 r blipsvolinit;
#X obj 20 47 simpler;
#X obj 124 21 r sample1init;
#X obj 230 47 simpler;
#X obj 334 21 r sample2init;
#X obj 230 21 r tonalnewpat;
#X obj 440 47 simpler;
#X obj 440 21 r breaksnewpat;
#X obj 544 21 r sample3init;
#X obj 230 272 catch~ processing;
#X obj 230 380 throw~ left;
#X obj 322 380 throw~ right;
#X obj 414 380 throw~ all;
#X obj 20 234 throw~ processing;
#X obj 230 234 throw~ processing;
#X obj 440 234 throw~ processing;
#X obj 148 380 throw~ all;
#X obj 648 47 simpler;
#X obj 648 234 throw~ processing;
#X obj 648 21 r fibarrchnoff;
#X obj 752 21 r sample4init;
#X obj 148 352 *~ 0.3;
#X obj 858 47 simpler;
#X obj 858 234 throw~ processing;
#X obj 976 21 r sample5init;
#X obj 858 21 r fibarrchnoffer;
#N canvas 901 206 250 297 samplefxchain 0;
#X obj 13 10 inlet~;
#X obj 14 260 outlet~;
#X obj 14 234 hip~ 5;
#X obj 34 82 delwrite~ \$0-sampledub 300;
#X obj 34 107 delread~ \$0-sampledub 280;
#X obj 34 203 throw~ sampledubwet;
#X obj 32 35 catch~ sampledubwet;
#X obj 13 59 *~ 1;
#X obj 34 131 hip~ 250;
#X obj 34 155 *~ 0.9;
#X obj 34 179 lop~ 2500;
#X connect 0 0 7 0;
#X connect 2 0 1 0;
#X connect 4 0 8 0;
#X connect 6 0 7 0;
#X connect 7 0 3 0;
#X connect 7 0 2 0;
#X connect 8 0 9 0;
#X connect 9 0 10 0;
#X connect 10 0 5 0;
#X restore 230 295 pd samplefxchain;
#X obj 230 352 rev2~ 92 96 1000 10, f 40;
#X obj 230 319 hip~ 350;
#X connect 0 0 1 0;
#X connect 1 0 13 0;
#X connect 2 0 1 1;
#X connect 3 0 14 0;
#X connect 4 0 3 1;
#X connect 5 0 3 0;
#X connect 6 0 15 0;
#X connect 7 0 6 0;
#X connect 8 0 6 1;
#X connect 9 0 26 0;
#X connect 17 0 18 0;
#X connect 19 0 17 0;
#X connect 20 0 17 1;
#X connect 21 0 16 0;
#X connect 22 0 23 0;
#X connect 24 0 22 1;
#X connect 25 0 22 0;
#X connect 26 0 28 0;
#X connect 27 0 10 0;
#X connect 27 1 11 0;
#X connect 27 2 12 0;
#X connect 28 0 21 0;
#X connect 28 0 27 0;
#X restore 596 458 pd sounds;
#N canvas 64 25 1086 608 beats 0;
#X obj 19 70 slicer;
#X obj 207 47 r mstrbpm;
#X obj 205 21 r mstrswtch;
#X obj 19 47 bng 19 250 50 0 empty glorest Restart 0 -7 0 8 #fcfcfc #000000 #000000;
#X obj 143 21 bng 19 250 50 0 empty breaksnewpat New\ pattern 0 -7 0 8 #fcfcfc #000000 #000000;
#X obj 852 86 r fibon;
#X obj 852 112 s glorest;
#X text 929 85 Trigger loop restart on each "Fibonacci Bang", f 17;
#X obj 81 47 r break1init;
#X obj 293 70 slicer;
#X obj 481 47 r mstrbpm;
#X obj 479 21 r mstrswtch;
#X obj 293 47 bng 19 250 50 0 empty glorest Restart 0 -7 0 8 #fcfcfc #000000 #000000;
#X obj 417 21 bng 19 250 50 0 empty breaksnewpat New\ pattern 0 -7 0 8 #fcfcfc #000000 #000000;
#X obj 355 47 r break2init;
#X obj 324 525 throw~ right;
#X obj 235 525 throw~ left;
#X obj 19 565 throw~ all;
#X obj 730 360 *~;
#X obj 730 287 r 16ths;
#X obj 293 311 *~;
#X obj 19 311 *~;
#X obj 37 288 == 0;
#X obj 748 336 tgl 19 0 empty blipsvolinit empty 17 7 0 10 #fcfcfc #000000 #000000 0 1;
#X obj 311 247 inlet;
#X obj 311 269 tgl 19 0 empty empty empty 0 -10 0 12 #fcfcfc #000000 #000000 0 1;
#X text 825 311 Blip synth;
#X obj 19 335 throw~ breaksdry;
#X obj 293 335 throw~ breaksdry;
#X obj 19 386 catch~ breaksdry;
#X obj 29 437 catch~ breakswet;
#X obj 414 525 throw~ breakswet;
#X obj 29 410 throw~ breaksfxbus;
#X obj 730 384 throw~ breaksdry;
#N canvas 113 115 665 434 breaksfx 0;
#X obj 33 131 line;
#X obj 166 131 line;
#X floatatom 166 154 5 0 0 0 - - - 0;
#X obj 33 80 r fibon;
#X floatatom 33 154 7 0 0 0 - - - 0;
#X obj 14 12 inlet~;
#X obj 14 254 outlet~;
#X obj 115 254 outlet~;
#X obj 217 254 outlet~;
#X obj 14 201 hip~ 100;
#X msg 33 105 1000 \, 10000 3500;
#X obj 14 176 vcf~ 4;
#X msg 166 105 20 \, 90 2800;
#X obj 14 230 rev2~ 89 20 100 0, f 44;
#X obj 513 401 throw~ breaksfxbus;
#X obj 390 108 delread4~ dubster;
#X obj 492 12 r fibon;
#X msg 492 37 0, f 1;
#X obj 390 401 throw~ breakswet;
#X obj 408 313 tgl 19 0 empty empty empty 0 -10 0 12 #fcfcfc #000000 #000000 0 1;
#X obj 390 335 *~;
#X obj 408 190 r fib55;
#X obj 390 162 hip~ 500;
#X text 15 304 FX section with resonant filter \, delay line and reverberator controlled by "Fibonacci Bangs", f 48;
#X obj 390 63 phasor~ 0.12358;
#X obj 390 378 *~ 0.4;
#X obj 24 37 delwrite~ dubster 34;
#X obj 390 86 *~ 34;
#X obj 408 214 i;
#X obj 408 238 + 1;
#X obj 408 262 mod 2;
#X obj 408 286 sel 0;
#X obj 390 133 *~ 0.8;
#X connect 0 0 4 0;
#X connect 1 0 2 0;
#X connect 2 0 13 2;
#X connect 3 0 10 0;
#X connect 3 0 12 0;
#X connect 4 0 11 1;
#X connect 5 0 11 0;
#X connect 5 0 26 0;
#X connect 9 0 13 0;
#X connect 10 0 0 0;
#X connect 11 0 9 0;
#X connect 12 0 1 0;
#X connect 13 0 6 0;
#X connect 13 1 7 0;
#X connect 13 2 8 0;
#X connect 15 0 32 0;
#X connect 16 0 17 0;
#X connect 17 0 24 1;
#X connect 19 0 20 1;
#X connect 20 0 14 0;
#X connect 20 0 25 0;
#X connect 21 0 28 0;
#X connect 22 0 20 0;
#X connect 24 0 27 0;
#X connect 25 0 18 0;
#X connect 27 0 15 0;
#X connect 28 0 29 0;
#X connect 29 0 30 0;
#X connect 30 0 28 1;
#X connect 30 0 31 0;
#X connect 31 0 19 0;
#X connect 32 0 22 0;
#X restore 235 437 pd breaksfx;
#X f 26;
#X obj 235 410 catch~ breaksfxbus;
#X obj 19 462 expr~ atan($v1);
#N canvas 723 143 440 442 fiboblips 0;
#X obj 264 25 inlet;
#X obj 264 230 vline~;
#X obj 12 303 *~;
#X obj 12 205 +~;
#X obj 52 122 *~;
#X obj 12 151 +~;
#X obj 52 176 *~;
#X obj 12 405 outlet~;
#X obj 87 122 osc~ 1;
#X obj 162 122 *~;
#X obj 162 176 *~;
#X obj 87 176 osc~ 2;
#X obj 282 98 r \$0-fiboblipslbase;
#X obj 282 151 r \$0-fiboblipsladd;
#X obj 264 122 f;
#X obj 264 176 +;
#X obj 264 254 pow~ 3;
#N canvas 766 132 380 330 fiboblipsarray 0;
#X obj 13 60 array define \$0-fiboblips;
#X msg 198 36 1 2 3 5 8 13 21 34 55;
#X obj 198 60 array set \$0-fiboblips;
#X msg 13 36 9, f 1;
#X obj 13 11 loadbang;
#X obj 198 11 loadbang;
#X obj 13 229 array get \$0-fiboblips;
#X floatatom 13 253 5 0 0 0 - - - 0;
#X obj 13 134 i;
#X obj 13 158 + 1;
#X obj 13 182 mod 9;
#X floatatom 13 206 5 0 0 0 - - - 0;
#X obj 183 110 r fib55;
#X obj 183 229 array get \$0-fiboblips;
#X floatatom 183 253 5 0 0 0 - - - 0;
#X obj 183 134 i;
#X obj 183 158 + 1;
#X obj 183 182 mod 9;
#X floatatom 183 206 5 0 0 0 - - - 0;
#X obj 13 276 s \$0-fiboblipsladd;
#X obj 183 276 s \$0-fiboblipslbase;
#X obj 13 110 r fibon;
#X connect 1 0 2 0;
#X connect 3 0 0 0;
#X connect 4 0 3 0;
#X connect 5 0 1 0;
#X connect 6 0 7 0;
#X connect 7 0 19 0;
#X connect 8 0 9 0;
#X connect 9 0 10 0;
#X connect 10 0 11 0;
#X connect 10 0 8 1;
#X connect 11 0 6 0;
#X connect 12 0 15 0;
#X connect 13 0 14 0;
#X connect 14 0 20 0;
#X connect 15 0 16 0;
#X connect 16 0 17 0;
#X connect 17 0 18 0;
#X connect 17 0 15 1;
#X connect 18 0 13 0;
#X connect 21 0 8 0;
#X restore 12 25 pd fiboblipsarray;
#X obj 12 375 *~ 0.2;
#X obj 12 351 hip~ 5000;
#X obj 197 176 osc~ 3;
#X obj 197 122 osc~ 5;
#X obj 12 67 osc~ 3000;
#X obj 52 98 osc~ 5000;
#X obj 162 98 osc~ 2000;
#X obj 12 327 hip~ 2000;
#X msg 264 205 1 2 \, 0 \$1 5;
#X connect 0 0 14 0;
#X connect 1 0 16 0;
#X connect 2 0 25 0;
#X connect 3 0 2 0;
#X connect 4 0 6 0;
#X connect 4 0 5 1;
#X connect 5 0 3 0;
#X connect 6 0 3 1;
#X connect 8 0 4 1;
#X connect 9 0 10 0;
#X connect 9 0 5 1;
#X connect 10 0 3 1;
#X connect 11 0 6 1;
#X connect 12 0 14 1;
#X connect 13 0 15 1;
#X connect 14 0 15 0;
#X connect 15 0 26 0;
#X connect 16 0 2 1;
#X connect 18 0 7 0;
#X connect 19 0 18 0;
#X connect 20 0 10 1;
#X connect 21 0 9 1;
#X connect 22 0 5 0;
#X connect 23 0 4 0;
#X connect 24 0 9 0;
#X connect 25 0 19 0;
#X connect 26 0 1 0;
#X restore 730 311 pd fiboblips;
#X obj 567 70 slicer;
#X obj 755 47 r mstrbpm;
#X obj 753 21 r mstrswtch;
#X obj 567 47 bng 19 250 50 0 empty glorest Restart 0 -7 0 8 #fcfcfc #000000 #000000;
#X obj 691 21 bng 19 250 50 0 empty breaksnewpat New\ pattern 0 -7 0 8 #fcfcfc #000000 #000000;
#X obj 629 47 r break3init;
#X obj 567 311 *~;
#X obj 567 384 throw~ breaksdry;
#X obj 585 269 tgl 19 0 empty empty empty 0 -10 0 12 #fcfcfc #000000 #000000 0 1;
#X obj 585 247 r fibarrchnoff;
#X obj 567 334 hip~ 700;
#X obj 19 540 *~;
#X obj 37 514 tgl 19 0 empty empty empty 0 -10 0 12 #fcfcfc #000000 #000000 0 1;
#X text 100 564 Master out beats;
#X obj 852 21 inlet;
#X obj 235 500 *~;
#X obj 324 500 *~;
#X obj 414 500 *~;
#X obj 852 47 s bmamp;
#X obj 432 474 r bmamp;
#X obj 37 490 r bmamp;
#X obj 342 474 r bmamp;
#X obj 253 474 r bmamp;
#X text 897 20 Master Amp.;
#X obj 567 359 *~ 0.6;
#X connect 0 0 21 0;
#X connect 1 0 0 4;
#X connect 2 0 0 3;
#X connect 3 0 0 0;
#X connect 4 0 0 2;
#X connect 5 0 6 0;
#X connect 8 0 0 1;
#X connect 9 0 20 0;
#X connect 10 0 9 4;
#X connect 11 0 9 3;
#X connect 12 0 9 0;
#X connect 13 0 9 2;
#X connect 14 0 9 1;
#X connect 18 0 33 0;
#X connect 19 0 37 0;
#X connect 20 0 28 0;
#X connect 21 0 27 0;
#X connect 22 0 21 1;
#X connect 23 0 18 1;
#X connect 24 0 25 0;
#X connect 25 0 20 1;
#X connect 25 0 22 0;
#X connect 29 0 32 0;
#X connect 29 0 36 0;
#X connect 30 0 36 0;
#X connect 34 0 53 0;
#X connect 34 1 54 0;
#X connect 34 2 55 0;
#X connect 35 0 34 0;
#X connect 36 0 49 0;
#X connect 37 0 18 0;
#X connect 38 0 44 0;
#X connect 39 0 38 4;
#X connect 40 0 38 3;
#X connect 41 0 38 0;
#X connect 42 0 38 2;
#X connect 43 0 38 1;
#X connect 44 0 48 0;
#X connect 46 0 44 1;
#X connect 47 0 46 0;
#X connect 48 0 62 0;
#X connect 49 0 17 0;
#X connect 50 0 49 1;
#X connect 52 0 56 0;
#X connect 53 0 16 0;
#X connect 54 0 15 0;
#X connect 55 0 31 0;
#X connect 57 0 55 1;
#X connect 58 0 50 0;
#X connect 59 0 54 1;
#X connect 60 0 53 1;
#X connect 62 0 45 0;
#X restore 19 458 pd beats;
#X f 12;
#X text 111 457 Break slicers \, blips;
#X obj 19 326 r 8ths;
#X obj 19 435 tgl 19 0 empty breakstoginit Break\ 1/2 22 10 0 10 #fcfcfc #000000 #000000 0 1;
#X obj 100 435 tgl 19 0 empty breaksampinit On/Off 22 10 0 10 #fcfcfc #000000 #000000 0 1;
#X text 487 348 Fibonacci based track structure, f 32;
#X text 668 457 Some jungle sounds :), f 22;
#X text 148 349 Fibonacci based sequencer;
#X text 58 54 <-- HIT ME!;
#X text 95 102 Master-BPM;
#X text 95 138 Base note (MIDI);
#X text 358 457 Harmonics \, sequencing and synths;
#X text 192 219 Rhythm engine based on master BPM that outputs bangs on different note values, f 21;
#X text 203 575 Master out section with main volume control and write-to-disc trigger, f 21;
#X connect 1 2 13 0;
#X connect 1 3 12 0;
#X connect 3 0 1 1;
#X connect 5 0 1 0;
#X connect 6 0 0 0;
#X connect 6 0 0 1;
#X connect 8 0 0 0;
#X connect 9 0 0 1;
#X connect 11 0 14 0;
#X connect 15 0 14 1;
#X connect 17 0 18 0;
#X connect 17 1 20 0;
#X connect 17 2 19 0;
#X connect 21 0 16 0;
#X connect 25 0 17 0;
#X connect 26 0 23 0;
#X connect 27 0 23 1;
