#N canvas 573 25 427 612 12;
#X obj 26 298 bng 15 250 50 0 \$0-sloadfile empty Load\ file 17 7 0 10 #00ff04 #000000 #000000;
#N canvas 830 139 450 278 (subpatch) 0;
#X array \$0-waver 104778 float 2;
#X coords 0 1 104778 -1 145 80 2 0 0;
#X restore 26 335 graph;
#X obj 174 337 vsl 15 75 0 1 0 0 \$0-sampl \$0-samplinit Vol. 0 -9 0 10 #feffc6 #000000 #000000 0 1;
#X symbolatom 101 298 15 0 0 0 - \$0-sfilename - 10;
#X obj 26 38 f \$0;
#X obj 26 15 loadbang;
#X text 91 14 Local preset, f 13;
#X obj 27 170 inlet;
#X obj 26 571 outlet~;
#N canvas 268 -628 328 331 sampleloader 0;
#X obj 18 39 openpanel;
#X obj 18 221 soundfiler;
#X floatatom 18 246 8 0 0 0 - - - 0;
#X listbox 116 240 15 0 0 0 - - - 0;
#X obj 116 263 unpack f;
#X obj 18 115 pack s f, f 11;
#X msg 18 196 read -resize \$1 \$2-waver;
#X obj 18 290 s \$0-slength;
#X obj 92 66 loadbang;
#X obj 92 90 f \$0;
#X obj 185 14 inlet;
#X obj 33 140 unpack s;
#X obj 116 290 s \$0-srate;
#X obj 18 14 inlet;
#X text 60 13 Open file panel;
#X text 226 13 Ext. filepath;
#X obj 33 164 s \$0-sfilename;
#X connect 0 0 5 0;
#X connect 1 0 2 0;
#X connect 1 1 3 0;
#X connect 2 0 7 0;
#X connect 3 0 4 0;
#X connect 4 0 12 0;
#X connect 5 0 6 0;
#X connect 5 0 11 0;
#X connect 6 0 1 0;
#X connect 8 0 9 0;
#X connect 9 0 5 1;
#X connect 10 0 5 0;
#X connect 11 0 16 0;
#X connect 13 0 0 0;
#X restore 26 252 pd sampleloader;
#X f 17;
#N canvas 361 381 503 342 sampleplayer 0;
#X obj 16 189 outlet~;
#X obj 16 133 *~;
#X obj 34 109 r \$0-sampl;
#X obj 16 80 tabplay~ \$0-waver;
#X obj 226 256 pack, f 7;
#X msg 226 281 \$1 \$2;
#X obj 226 29 s \$0-sstartinit;
#X obj 355 29 s \$0-sendinit;
#X obj 226 109 r \$0-sstart;
#X obj 316 109 r \$0-send;
#X obj 41 29 r \$0-splayer;
#X obj 16 7 inlet;
#X obj 16 55 list;
#X obj 226 306 s \$0-splayer;
#X obj 226 80 nbx 7 17 0 1e+37 0 0 \$0-sstart \$0-sstartinit Start 0 -8 0 10 #fcfcfc #000000 #000000 0 256;
#X obj 316 80 nbx 7 17 0 1e+37 0 0 \$0-send \$0-sendinit End 0 -8 0 10 #fcfcfc #000000 #000000 0 256;
#X obj 355 7 r \$0-sendslider;
#X obj 226 7 r \$0-sstartslider;
#X text 62 6 Bang = play;
#X floatatom 240 208 8 0 0 0 - - - 0;
#X obj 240 231 t b f;
#X obj 316 189 expr $f1-$f2;
#X obj 365 133 r \$0-sstart;
#X obj 365 157 t b f;
#X connect 1 0 0 0;
#X connect 2 0 1 1;
#X connect 3 0 1 0;
#X connect 4 0 5 0;
#X connect 5 0 13 0;
#X connect 8 0 4 0;
#X connect 9 0 21 0;
#X connect 10 0 12 1;
#X connect 11 0 12 0;
#X connect 12 0 3 0;
#X connect 16 0 7 0;
#X connect 17 0 6 0;
#X connect 19 0 20 0;
#X connect 20 0 4 0;
#X connect 20 1 4 1;
#X connect 21 0 19 0;
#X connect 22 0 23 0;
#X connect 23 0 21 0;
#X connect 23 1 21 1;
#X coords 0 -1 1 1 180 45 2 220 60;
#X restore 26 507 pd sampleplayer;
#X obj 29 425 hsl 140 10 0 104778 0 0 \$0-sendslider \$0-sendsliderinit empty -2 -10 0 12 #ffffff #9c00ff #000000 0 1;
#X obj 29 415 hsl 140 10 0 104778 0 0 \$0-sstartslider \$0-sstartsliderinit empty -2 -10 0 12 #ffffff #00faff #000000 0 1;
#N canvas 456 283 515 130 sliderinit 0;
#X obj 334 18 r \$0-slength;
#X msg 334 42 range 0 \$1;
#X obj 344 66 s \$0-sstartsliderinit;
#X obj 334 90 s \$0-sendsliderinit;
#X obj 16 18 loadbang;
#X msg 16 42 set 0;
#X obj 16 66 s \$0-sstartsliderinit;
#X obj 182 18 r \$0-slength;
#X msg 182 42 set \$1;
#X obj 182 66 s \$0-sendsliderinit;
#X obj 82 18 r \$0-slength;
#X connect 0 0 1 0;
#X connect 1 0 2 0;
#X connect 1 0 3 0;
#X connect 4 0 5 0;
#X connect 5 0 6 0;
#X connect 7 0 8 0;
#X connect 8 0 9 0;
#X connect 10 0 5 0;
#X restore 26 100 pd sliderinit;
#X obj 26 441 bng 19 250 50 0 \$0-splaysample \$0-splaysampleinit Play 23 10 0 10 #fcfcfc #000000 #000000;
#X obj 26 228 r \$0-sloadfile;
#X text 70 169 Play;
#X obj 27 194 s \$0-splaysampleinit;
#X obj 142 170 inlet;
#X text 182 169 Filepath;
#X text 222 290 Simpler is a simple sample player that uses tabplay~ to play back a single sample in an array. Sliders below the array allow to define start and end position of sample playback. The first inlet takes in bangs to trigger playback of the sample \, the second inlet takes in the sample filepath. Sliders are somewhat sketchy in usage, f 25;
#X obj 26 483 r \$0-splaysample;
#X msg 26 61 \; \$1-samplinit 0.2 \;, f 19;
#X connect 4 0 22 0;
#X connect 5 0 4 0;
#X connect 7 0 17 0;
#X connect 10 0 8 0;
#X connect 15 0 9 0;
#X connect 18 0 9 1;
#X connect 21 0 10 0;
#X coords 0 -1 1 1 180 180 2 20 290;
