#N canvas 32 46 1074 548 12;
#N canvas 297 134 749 334 arranger 1;
#X obj 15 85 trackbuilder;
#X obj 15 60 spigot, f 8;
#X obj 68 12 inlet;
#X obj 68 36 tgl 19 0 empty empty empty 0 -10 0 12 #fcfcfc #000000 #000000 0 1;
#X text 113 11 Enable track mode;
#X obj 15 12 r 8th;
#N canvas 344 171 581 298 s1 0;
#X obj 152 39 sel 1;
#X obj 152 64 bng 15 250 50 0 empty empty empty 17 7 0 10 #fcfcfc #000000 #000000;
#X obj 152 14 inlet;
#X obj 302 103 sel 0;
#X msg 15 130 \; pbasstoginit 0 \; sbasstoginit 0 \; padstoginit 1 \; blipstoginit 1 \; melztoginit 0 \; hatsstoginit 0 \; smplstoginit 1 \;;
#X msg 152 130 \; breakstoginit 1 \; swbanksinit 1 \; swbrchnginit 4 \; bfxsensinit 95 \; bfxfiltinit 0 \; bfxfdryinit 0.7 \; bfxfwetinit 0 \; bfxdelvolinit 0.2 \;;
#X msg 302 130 \; padstoginit 1 \; breakstoginit 1 \; swbanksinit 1 \; swbrchnginit 2 \; bfxsensinit 95 \; bfxfiltinit 0 \; bfxfdryinit 0.7 \; bfxfwetinit 0 \; bfxdelvolinit 0.2 \;;
#X obj 302 79 random 4;
#X text 449 129 Full preset just in case random kicks in first on track start :), f 14;
#X connect 0 0 1 0;
#X connect 1 0 5 0;
#X connect 1 0 4 0;
#X connect 1 0 7 0;
#X connect 2 0 0 0;
#X connect 3 0 6 0;
#X connect 7 0 3 0;
#X restore 15 294 pd s1;
#N canvas 376 407 432 272 s2 0;
#X obj 152 39 sel 1;
#X obj 152 64 bng 15 250 50 0 empty empty empty 17 7 0 10 #fcfcfc #000000 #000000;
#X obj 152 14 inlet;
#X obj 302 103 sel 0;
#X msg 302 130 \; sbasstoginit 1;
#X msg 15 130 \; pbasstoginit 0 \; sbasstoginit 0 \; padstoginit 1 \; blipstoginit 1 \; melztoginit 0 \; hatsstoginit 0 \; smplstoginit 1 \;;
#X msg 152 130 \; breakstoginit 1 \; swbanksinit 1 \; swbrchnginit 2 \; bfxsensinit 90 \; bfxfiltinit 1 \; bfxfdryinit 0.8 \; bfxfwetinit 0.5 \; bfxdelvolinit 0.2 \;;
#X obj 302 79 random 3;
#X connect 0 0 1 0;
#X connect 1 0 6 0;
#X connect 1 0 5 0;
#X connect 1 0 7 0;
#X connect 2 0 0 0;
#X connect 3 0 4 0;
#X connect 7 0 3 0;
#X restore 68 294 pd s2;
#N canvas 651 256 432 262 s3 0;
#X obj 152 39 sel 1;
#X obj 152 64 bng 15 250 50 0 empty empty empty 17 7 0 10 #fcfcfc #000000 #000000;
#X obj 152 14 inlet;
#X obj 302 103 sel 0;
#X obj 302 79 random 3;
#X msg 15 130 \; pbasstoginit 0 \; sbasstoginit 0 \; padstoginit 1 \; blipstoginit 1 \; melztoginit 0 \; hatsstoginit 0 \; smplstoginit 1 \;;
#X msg 302 130 \; blipstoginit 0 \; padstoginit 0 \; sbasstoginit 1 \;;
#X msg 152 130 \; breakstoginit 0 \; swbanksinit 0 \; swbrchnginit 15 \; bfxsensinit 90 \; bfxfdryinit 0 \; bfxfwetinit 0.9 \; bfxdelvolinit 0.2 \;;
#X connect 0 0 1 0;
#X connect 1 0 7 0;
#X connect 1 0 4 0;
#X connect 1 0 5 0;
#X connect 2 0 0 0;
#X connect 3 0 6 0;
#X connect 4 0 3 0;
#X restore 122 294 pd s3;
#N canvas 607 236 427 274 s4 0;
#X obj 152 39 sel 1;
#X obj 152 64 bng 15 250 50 0 empty empty empty 17 7 0 10 #fcfcfc #000000 #000000;
#X obj 152 14 inlet;
#X obj 302 103 sel 0;
#X msg 15 130 \; pbasstoginit 1 \; sbasstoginit 0 \; padstoginit 0 \; blipstoginit 0 \; melztoginit 0 \; hatsstoginit 0 \; smplstoginit 1 \;;
#X msg 152 130 \; breakstoginit 1 \; swbanksinit 0 \; swbrchnginit 3 \; bfxsensinit 99 \; bfxfiltinit 0 \; bfxfdryinit 1 \; bfxfwetinit 0 \; bfxdelvolinit 0 \;;
#X msg 302 130 \; swbanksinit 0 \; pbasstoginit 0 \; blipstoginit 1 \; swbrchnginit 1 \;;
#X obj 302 79 random 6;
#X connect 0 0 1 0;
#X connect 1 0 5 0;
#X connect 1 0 4 0;
#X connect 1 0 7 0;
#X connect 2 0 0 0;
#X connect 3 0 6 0;
#X connect 7 0 3 0;
#X restore 175 294 pd s4;
#N canvas 179 204 439 269 s5 0;
#X obj 152 39 sel 1;
#X obj 152 64 bng 15 250 50 0 empty empty empty 17 7 0 10 #fcfcfc #000000 #000000;
#X obj 152 14 inlet;
#X obj 302 103 sel 0;
#X obj 302 79 random 4;
#X msg 15 130 \; pbasstoginit 1 \; sbasstoginit 0 \; padstoginit 0 \; blipstoginit 0 \; melztoginit 0 \; hatsstoginit 1 \; smplstoginit 1 \;;
#X msg 302 130 \; swbanksinit 0 \; pbasstoginit 0 \; bfxfdryinit 0.3 \; bfxfwetinit 1 \; swbrchnginit 1 \; blipstoginit 1 \;;
#X msg 152 130 \; breakstoginit 1 \; swbanksinit 0 \; swbrchnginit 2 \; bfxsensinit 95 \; bfxfiltinit 1 \; bfxfdryinit 1 \; bfxfwetinit 0.3 \; bfxdelvolinit 0.3 \;;
#X connect 0 0 1 0;
#X connect 1 0 7 0;
#X connect 1 0 5 0;
#X connect 1 0 4 0;
#X connect 2 0 0 0;
#X connect 3 0 6 0;
#X connect 4 0 3 0;
#X restore 229 294 pd s5;
#N canvas 694 326 437 276 s6 0;
#X obj 152 39 sel 1;
#X obj 152 64 bng 15 250 50 0 empty empty empty 17 7 0 10 #fcfcfc #000000 #000000;
#X obj 152 14 inlet;
#X obj 302 103 sel 0;
#X obj 302 79 random 4;
#X msg 15 130 \; pbasstoginit 1 \; sbasstoginit 0 \; padstoginit 1 \; blipstoginit 0 \; melztoginit 1 \; hatsstoginit 1 \; smplstoginit 1 \;;
#X msg 152 130 \; breakstoginit 1 \; swbanksinit 2 \; swbrchnginit 4 \; bfxsensinit 93 \; bfxfiltinit 1 \; bfxfdryinit 1 \; bfxfwetinit 0.3 \; bfxdelvolinit 0.2 \;;
#X msg 302 130 \; swbanksinit 2 \; pbasstoginit 0 \; padstoginit 0 \; bfxfdryinit 0.6 \; bfxfwetinit 1 \;;
#X connect 0 0 1 0;
#X connect 1 0 6 0;
#X connect 1 0 5 0;
#X connect 1 0 4 0;
#X connect 2 0 0 0;
#X connect 3 0 7 0;
#X connect 4 0 3 0;
#X restore 282 294 pd s6;
#N canvas 274 291 445 272 s7 0;
#X obj 152 39 sel 1;
#X obj 152 64 bng 15 250 50 0 empty empty empty 17 7 0 10 #fcfcfc #000000 #000000;
#X obj 152 14 inlet;
#X obj 302 103 sel 0;
#X msg 15 130 \; pbasstoginit 1 \; sbasstoginit 0 \; padstoginit 1 \; blipstoginit 0 \; melztoginit 1 \; hatsstoginit 0 \; smplstoginit 1 \;;
#X obj 302 79 random 2;
#X msg 302 130 \; pbasstoginit 0 \; padstoginit 0 \; breakstoginit 1 \;;
#X msg 152 130 \; breakstoginit 0 \; swbanksinit 1 \; swbrchnginit 8 \; bfxsensinit 90 \; bfxfiltinit 1 \; bfxfdryinit 0 \; bfxfwetinit 0.2 \; bfxdelvolinit 0.2 \;;
#X connect 0 0 1 0;
#X connect 1 0 7 0;
#X connect 1 0 4 0;
#X connect 1 0 5 0;
#X connect 2 0 0 0;
#X connect 3 0 6 0;
#X connect 5 0 3 0;
#X restore 336 294 pd s7;
#N canvas 454 225 436 272 s8 1;
#X obj 152 39 sel 1;
#X obj 152 64 bng 15 250 50 0 empty empty empty 17 7 0 10 #fcfcfc #000000 #000000;
#X obj 152 14 inlet;
#X obj 302 103 sel 0;
#X obj 302 79 random 2;
#X msg 15 130 \; pbasstoginit 0 \; sbasstoginit 0 \; padstoginit 0 \; blipstoginit 0 \; melztoginit 0 \; hatsstoginit 1 \; smplstoginit 1 \;;
#X msg 152 130 \; breakstoginit 1 \; swbanksinit 0 \; swbrchnginit 2 \; bfxsensinit 90 \; bfxfiltinit 1 \; bfxfdryinit 0.9 \; bfxfwetinit 0.7 \; bfxdelvolinit 0.3 \;;
#X msg 302 130 \; swbanksinit 0 \; pbasstoginit 1 \; blipstoginit 1 \; bfxfdryinit 0.7 \; bfxfwetinit 1 \; swbrchnginit 4 \;;
#X connect 0 0 1 0;
#X connect 1 0 6 0;
#X connect 1 0 5 0;
#X connect 1 0 4 0;
#X connect 2 0 0 0;
#X connect 3 0 7 0;
#X connect 4 0 3 0;
#X restore 390 294 pd s8;
#N canvas 704 165 434 272 s9 0;
#X obj 152 39 sel 1;
#X obj 152 64 bng 15 250 50 0 empty empty empty 17 7 0 10 #fcfcfc #000000 #000000;
#X obj 152 14 inlet;
#X obj 302 103 sel 0;
#X msg 15 130 \; pbasstoginit 0 \; sbasstoginit 0 \; padstoginit 0 \; blipstoginit 0 \; melztoginit 0 \; hatsstoginit 0 \; smplstoginit 1 \;;
#X obj 302 79 random 3;
#X msg 152 130 \; breakstoginit 1 \; swbanksinit 2 \; swbrchnginit 2 \; bfxsensinit 99 \; bfxfiltinit 0 \; bfxfdryinit 1 \; bfxfwetinit 0 \; bfxdelvolinit 0.1 \;;
#X msg 302 130 \; swbanksinit 2 \; hatsstoginit 1 \; sbasstoginit 1 \; swbrchnginit 1 \;;
#X connect 0 0 1 0;
#X connect 1 0 4 0;
#X connect 1 0 6 0;
#X connect 1 0 5 0;
#X connect 2 0 0 0;
#X connect 3 0 7 0;
#X connect 5 0 3 0;
#X restore 443 294 pd s9;
#N canvas 128 467 235 173 cbeditz 0;
#X obj 17 17 inlet;
#X floatatom 17 41 5 0 0 0 - - - 0;
#X obj 17 64 ==, f 7;
#X obj 17 88 sel 1;
#X obj 17 112 bng 19 250 50 0 empty empty empty 0 -10 0 12 #fcfcfc #000000 #000000;
#X floatatom 63 41 5 0 0 0 - - - 0;
#X text 79 65 When Drop 2 is reached \, create new patterns globally., f 20;
#X obj 17 136 s glonewpatinit;
#X obj 63 17 r 8it;
#X connect 0 0 1 0;
#X connect 1 0 2 0;
#X connect 2 0 3 0;
#X connect 3 0 4 0;
#X connect 4 0 7 0;
#X connect 5 0 2 1;
#X connect 8 0 5 0;
#X restore 658 294 pd cbeditz;
#N canvas 633 152 349 178 xk1 0;
#X obj 17 7 inlet;
#X obj 17 148 s sambang1;
#X obj 101 148 s sambang2;
#X obj 185 148 s sambang3;
#X obj 17 105 sel 0 1 2;
#X obj 17 31 i;
#X obj 17 55 + 1;
#X obj 17 79 mod 3;
#X obj 85 48 s swbankbang;
#X text 185 26 Play a random sample on any of these events (in this case every start of a section) and retrigger the most recent drum break bank., f 21;
#X obj 85 26 del 10;
#X connect 0 0 5 0;
#X connect 0 0 10 0;
#X connect 4 0 1 0;
#X connect 4 1 2 0;
#X connect 4 2 3 0;
#X connect 5 0 6 0;
#X connect 6 0 7 0;
#X connect 7 0 5 1;
#X connect 7 0 4 0;
#X connect 10 0 8 0;
#X restore 497 294 pd xk1;
#N canvas 584 225 322 132 xt4 0;
#X obj 17 17 inlet;
#X obj 17 97 s sambang4;
#X obj 101 97 s sambang5;
#X obj 185 97 s sambang6;
#X obj 17 41 random 3;
#X obj 17 65 sel 0 1 2;
#X text 108 16 Play a random sample on any of these events (in this case every 4 bars before a section ends)., f 27;
#X connect 0 0 4 0;
#X connect 4 0 5 0;
#X connect 5 0 1 0;
#X connect 5 1 2 0;
#X connect 5 2 3 0;
#X restore 550 294 pd xt4;
#N canvas 110 404 313 171 xt1 0;
#X obj 6 7 inlet;
#X obj 6 31 del 10;
#X msg 6 55 \; pbasstoginit 0 \; sbasstoginit 0 \; padstoginit 0 \; hatsstoginit 0 \; smplstoginit 1 \; sambang7 bang \;;
#X text 134 54 Every 1 bar before a sections ends \, disable major elements and play a sample. Delay for 10ms to overwrite other triggers at the same event., f 23;
#X connect 0 0 1 0;
#X connect 1 0 2 0;
#X restore 604 294 pd xt1;
#X connect 0 0 6 0;
#X connect 0 1 7 0;
#X connect 0 2 8 0;
#X connect 0 3 9 0;
#X connect 0 4 10 0;
#X connect 0 5 11 0;
#X connect 0 6 12 0;
#X connect 0 7 13 0;
#X connect 0 8 14 0;
#X connect 0 9 16 0;
#X connect 0 10 17 0;
#X connect 0 11 18 0;
#X connect 0 12 15 0;
#X connect 1 0 0 0;
#X connect 2 0 3 0;
#X connect 3 0 1 1;
#X connect 5 0 1 0;
#X restore 639 48 pd arranger;
#X f 12;
#X obj 793 48 master_out;
#X obj 289 48 BPM-engine;
#X obj 29 48 tgl 55 0 mstrswtch empty empty 0 -10 0 12 #ff8300 #000000 #000000 0 1;
#X obj 447 19 r mstrswtch;
#X floatatom 29 115 3 1 1000 1 BPM bpminit mstrbpm 16;
#X obj 289 19 r mstrbpm;
#X obj 880 19 catch~ all;
#X obj 352 146 s 8th;
#X obj 793 19 catch~ left;
#X obj 961 19 catch~ right;
#X text 460 47 Rhythm engine based on master BPM that outputs bangs on different note values., f 18;
#X text 792 151 Master out section with main volume control and write-to-disc trigger., f 27;
#X floatatom 109 115 3 1 1000 1 Note basenoteinit basenote 16;
#X obj 536 238 tgl 19 0 empty sbasstoginit empty 22 10 0 10 #fcfcfc #000000 #000000 0 1;
#X obj 29 238 tgl 19 0 empty breakstoginit On/Off 22 10 0 10 #fcfcfc #000000 #000000 0 1;
#N canvas 7 31 530 457 breaks 0;
#X obj 20 413 throw~ all;
#X obj 20 389 *~;
#X obj 331 314 inlet;
#N canvas 140 233 670 362 switch 0;
#X obj 16 38 i;
#X obj 16 62 + 1;
#X obj 16 110 sel 0;
#X msg 16 213 1, f 1;
#X msg 90 213 1, f 1;
#X msg 164 213 1, f 1;
#X floatatom 593 32 2 0 0 1 - swmodrateinit swmodrate 10;
#X obj 510 176 * 4;
#X obj 16 86 mod;
#X obj 16 12 inlet;
#X msg 238 213 1, f 1;
#X msg 312 213 1, f 1;
#X msg 386 213 1, f 1;
#X obj 16 190 sel 0 1 2 3 4 5, f 64;
#X text 411 266 On activation \, disable the other "channels"., f 21;
#X obj 16 134 expr if($f2 == 0 \, random(0 \, 3) \, if($f2 == 1 \, random(3 \, 6) \, if($f2 == 2 \, random(0 \, 6) \, 0))), f 31;
#X text 247 135 Randomize from selected bank, f 13;
#X obj 510 89 hradio 20 1 0 3 swbanks swbanksinit Break\ Bank\ (1/2/both) 0 -8 0 10 #ffe3c6 #000000 #000000 0;
#X obj 513 49 hsl 125 19 1 16 0 0 swbrchng swbrchnginit Change\ every\ \ \ \ th\ bang -2 -8 0 10 #9f9f9f #000000 #000000 0 1;
#X obj 230 110 r swbanks;
#X obj 510 129 r swbrchng;
#X obj 510 152 i;
#X text 62 11 Bangs;
#X obj 16 326 s b1;
#X obj 90 326 s b2;
#X obj 164 326 s b3;
#X obj 238 326 s b4;
#X obj 312 326 s b5;
#X obj 386 326 s b6;
#N canvas 643 184 88 144 swoff 0;
#X obj 19 13 inlet;
#X obj 19 37 == 1;
#X obj 19 61 sel 1;
#X msg 19 85 0;
#X obj 19 109 outlet;
#X connect 0 0 1 0;
#X connect 1 0 2 0;
#X connect 2 0 3 0;
#X connect 3 0 4 0;
#X restore 26 242 pd swoff;
#N canvas 643 184 88 144 swoff 0;
#X obj 19 13 inlet;
#X obj 19 37 == 1;
#X obj 19 61 sel 1;
#X msg 19 85 0;
#X obj 19 109 outlet;
#X connect 0 0 1 0;
#X connect 1 0 2 0;
#X connect 2 0 3 0;
#X connect 3 0 4 0;
#X restore 100 242 pd swoff;
#N canvas 643 184 88 144 swoff 0;
#X obj 19 13 inlet;
#X obj 19 37 == 1;
#X obj 19 61 sel 1;
#X msg 19 85 0;
#X obj 19 109 outlet;
#X connect 0 0 1 0;
#X connect 1 0 2 0;
#X connect 2 0 3 0;
#X connect 3 0 4 0;
#X restore 174 242 pd swoff;
#N canvas 643 184 88 144 swoff 0;
#X obj 19 13 inlet;
#X obj 19 37 == 1;
#X obj 19 61 sel 1;
#X msg 19 85 0;
#X obj 19 109 outlet;
#X connect 0 0 1 0;
#X connect 1 0 2 0;
#X connect 2 0 3 0;
#X connect 3 0 4 0;
#X restore 248 242 pd swoff;
#N canvas 643 184 88 144 swoff 0;
#X obj 19 13 inlet;
#X obj 19 37 == 1;
#X obj 19 61 sel 1;
#X msg 19 85 0;
#X obj 19 109 outlet;
#X connect 0 0 1 0;
#X connect 1 0 2 0;
#X connect 2 0 3 0;
#X connect 3 0 4 0;
#X restore 322 242 pd swoff;
#N canvas 643 184 88 144 swoff 0;
#X obj 19 13 inlet;
#X obj 19 37 == 1;
#X obj 19 61 sel 1;
#X msg 19 85 0;
#X obj 19 109 outlet;
#X connect 0 0 1 0;
#X connect 1 0 2 0;
#X connect 2 0 3 0;
#X connect 3 0 4 0;
#X restore 396 242 pd swoff;
#X obj 510 200 s swmodrateinit;
#X obj 48 62 r swmodrate;
#X obj 69 110 loadbang;
#X obj 138 110 r swbankbang;
#X connect 0 0 1 0;
#X connect 1 0 8 0;
#X connect 2 0 15 0;
#X connect 3 0 29 0;
#X connect 3 0 23 0;
#X connect 4 0 30 0;
#X connect 4 0 24 0;
#X connect 5 0 31 0;
#X connect 5 0 25 0;
#X connect 7 0 35 0;
#X connect 8 0 0 1;
#X connect 8 0 2 0;
#X connect 9 0 0 0;
#X connect 10 0 32 0;
#X connect 10 0 26 0;
#X connect 11 0 33 0;
#X connect 11 0 27 0;
#X connect 12 0 34 0;
#X connect 12 0 28 0;
#X connect 13 0 3 0;
#X connect 13 1 4 0;
#X connect 13 2 5 0;
#X connect 13 3 10 0;
#X connect 13 4 11 0;
#X connect 13 5 12 0;
#X connect 15 0 13 0;
#X connect 19 0 15 1;
#X connect 20 0 21 0;
#X connect 21 0 7 0;
#X connect 29 0 24 0;
#X connect 29 0 28 0;
#X connect 29 0 27 0;
#X connect 29 0 26 0;
#X connect 29 0 25 0;
#X connect 30 0 23 0;
#X connect 30 0 28 0;
#X connect 30 0 27 0;
#X connect 30 0 26 0;
#X connect 30 0 25 0;
#X connect 31 0 26 0;
#X connect 31 0 24 0;
#X connect 31 0 23 0;
#X connect 31 0 28 0;
#X connect 31 0 27 0;
#X connect 32 0 27 0;
#X connect 32 0 25 0;
#X connect 32 0 24 0;
#X connect 32 0 23 0;
#X connect 32 0 28 0;
#X connect 33 0 28 0;
#X connect 33 0 26 0;
#X connect 33 0 25 0;
#X connect 33 0 24 0;
#X connect 33 0 23 0;
#X connect 34 0 27 0;
#X connect 34 0 26 0;
#X connect 34 0 25 0;
#X connect 34 0 24 0;
#X connect 34 0 23 0;
#X connect 36 0 8 1;
#X connect 37 0 15 0;
#X connect 38 0 15 0;
#X coords 0 -1 1 1 150 100 2 500 20;
#X restore 20 111 pd switch;
#N canvas 221 138 528 539 breaks_fx 0;
#X obj 60 105 bng 25 50 20 0 empty bfxenvdisinit empty 17 7 0 10 #e3c6ff #9c00ff #000000;
#X obj 60 47 vsl 25 55 90 99 0 0 bfxsens bfxsensinit Sens 0 -9 0 10 #e3c6ff #000000 #000000 0 1;
#X obj 25 241 catch~ breaks;
#X obj 269 47 vsl 25 80 0 1 0 0 bfxvol bfxvolinit MVol. 0 -9 0 10 #feffc6 #000000 #000000 0 1;
#X obj 352 11 loadbang;
#X floatatom 156 84 5 0 0 2 Freq bfxfbfinit bfxfbf 10;
#X obj 156 115 hradio 15 1 0 2 bfxfdir bfxfdirinit Direct. 0 -8 0 10 #c7c6ff #0f4710 #000000 0;
#X obj 156 45 tgl 25 0 bfxfilt bfxfiltinit On/Off 0 -8 0 10 #c7c6ff #ff0400 #000000 0 1;
#X obj 108 428 rev2~ 84 30 1000 10, f 37;
#X obj 25 311 expr~ atan($v1);
#X obj 25 508 outlet~;
#X obj 108 508 outlet~;
#X obj 193 508 outlet~;
#X obj 211 458 r bfxvol;
#X obj 24 47 vsl 25 80 1 4 0 0 bfxod bfxodinit OD 0 -9 0 10 #ffc7c6 #000000 #000000 0 1;
#X obj 25 288 *~;
#X obj 43 264 r bfxod;
#X obj 144 241 r~ bfxdel;
#X obj 144 335 throw~ breaks;
#X text 155 10 RES. FILTER;
#X obj 193 483 *~;
#X obj 25 335 s~ bfxpod;
#N canvas 504 186 479 422 bfxdelay 0;
#X obj 83 310 *~;
#X obj 213 221 tgl 15 0 empty empty empty 17 7 0 10 #fcfcfc #000000 #000000 0 1;
#X obj 213 291 line;
#X obj 83 384 s~ bfxdel;
#X obj 17 11 r~ bfxpod;
#X obj 213 101 i;
#X obj 213 125 + 1;
#X obj 83 288 delread4~ delor;
#X obj 213 173 sel 0;
#X obj 101 101 i;
#X obj 101 125 + 1;
#X obj 101 173 + 1;
#X obj 101 77 r bfxenvtrig;
#X obj 213 77 r bfxenvtrig;
#X obj 101 197 * 5;
#X msg 157 197 0, f 1;
#X obj 17 39 delwrite~ delor 20;
#X obj 101 336 r bfxdelvol;
#X msg 213 265 \$1 100;
#X obj 83 360 *~;
#X obj 83 265 *~;
#X obj 101 149 mod 20;
#X obj 157 173 sel 1;
#X obj 308 77 r bfxenvtrig;
#X obj 308 125 pow 2;
#X obj 213 149 mod;
#X obj 308 101 expr (random(1 \, 4)*3);
#X obj 17 173 sel 0 1, f 10;
#X msg 17 197 0.2;
#X obj 83 241 phasor~ 0.2;
#X obj 17 149 random 2;
#X msg 50 197 -0.4;
#X connect 0 0 19 0;
#X connect 1 0 18 0;
#X connect 1 0 22 0;
#X connect 2 0 0 1;
#X connect 4 0 16 0;
#X connect 5 0 6 0;
#X connect 6 0 25 0;
#X connect 7 0 0 0;
#X connect 8 0 1 0;
#X connect 9 0 10 0;
#X connect 10 0 21 0;
#X connect 11 0 14 0;
#X connect 12 0 9 0;
#X connect 13 0 5 0;
#X connect 14 0 20 1;
#X connect 15 0 29 1;
#X connect 17 0 19 1;
#X connect 18 0 2 0;
#X connect 19 0 3 0;
#X connect 20 0 7 0;
#X connect 21 0 9 1;
#X connect 21 0 11 0;
#X connect 22 0 15 0;
#X connect 22 0 30 0;
#X connect 23 0 26 0;
#X connect 24 0 25 1;
#X connect 25 0 5 1;
#X connect 25 0 8 0;
#X connect 26 0 24 0;
#X connect 27 0 28 0;
#X connect 27 1 31 0;
#X connect 28 0 29 0;
#X connect 29 0 20 0;
#X connect 30 0 27 0;
#X connect 31 0 29 0;
#X restore 25 176 pd bfxdelay;
#N canvas 916 25 256 553 bfxresfilt 0;
#X obj 19 96 t f f f;
#X obj 19 160 pack f f f;
#X obj 19 328 line;
#X msg 19 294 \$1 \, \$2 \$3;
#X msg 121 294 \$2 \, \$1 \$3;
#X obj 160 251 tgl 15 0 empty empty empty 17 7 0 10 #fcfcfc #000000 #000000 0 1;
#X obj 121 271 spigot;
#X obj 58 251 tgl 15 0 empty empty empty 17 7 0 10 #fcfcfc #000000 #000000 0 1;
#X obj 19 271 spigot;
#X obj 58 213 expr $f1 == 0 \; $f1 == 1, f 15;
#X obj 58 189 r bfxfdir;
#X obj 19 17 r bfxenvtrig;
#X obj 19 72 f;
#X obj 37 47 r bfxfbf;
#X obj 19 352 s bfxffreq;
#X obj 58 487 *~;
#X obj 76 459 r bfxfilt;
#X obj 38 434 r bfxffreq;
#X obj 19 383 r~ bfxpod;
#X obj 58 512 s~ bfxrfl;
#X obj 86 134 * 0.8;
#X obj 52 134 * 5;
#X obj 19 459 vcf~ 9;
#X text 84 95 Change freq range and filter speed here, f 22;
#X obj 19 411 *~ 3;
#X connect 0 0 1 0;
#X connect 0 1 21 0;
#X connect 0 2 20 0;
#X connect 1 0 6 0;
#X connect 1 0 8 0;
#X connect 2 0 14 0;
#X connect 3 0 2 0;
#X connect 4 0 2 0;
#X connect 5 0 6 1;
#X connect 6 0 4 0;
#X connect 7 0 8 1;
#X connect 8 0 3 0;
#X connect 9 0 7 0;
#X connect 9 1 5 0;
#X connect 10 0 9 0;
#X connect 11 0 12 0;
#X connect 12 0 0 0;
#X connect 13 0 12 1;
#X connect 15 0 19 0;
#X connect 16 0 15 1;
#X connect 17 0 22 1;
#X connect 18 0 24 0;
#X connect 20 0 1 2;
#X connect 21 0 1 1;
#X connect 22 1 15 0;
#X connect 24 0 22 0;
#X restore 25 200 pd bfxresfilt;
#X obj 108 47 vsl 25 80 0 0.3 0 0 bfxdelvol bfxdelvolinit Feedb. 0 -9 0 10 #c6ffc7 #000000 #000000 0 1;
#X obj 126 458 r bfxvol;
#X obj 108 483 *~;
#X obj 43 458 r bfxvol;
#X obj 25 483 *~;
#N canvas 159 314 238 138 sensitivity 0;
#X obj 11 34 env~;
#X obj 11 80 sel 1;
#X obj 11 57 >=;
#X obj 48 34 r bfxsens;
#X obj 11 10 r~ bfxpod;
#X obj 11 104 s bfxenvtrig;
#X obj 111 104 s bfxenvdisinit;
#X connect 0 0 2 0;
#X connect 1 0 5 0;
#X connect 1 0 6 0;
#X connect 2 0 1 0;
#X connect 3 0 2 1;
#X connect 4 0 0 0;
#X restore 25 152 pd sensitivity;
#X obj 25 428 *~ 0.4;
#X obj 371 241 r~ bfxrfl;
#X obj 266 241 r~ bfxpod;
#X obj 266 288 *~;
#X obj 371 288 *~;
#X obj 266 335 throw~ bfxsum;
#X obj 371 335 throw~ bfxsum;
#X obj 25 391 catch~ bfxsum;
#X obj 198 47 vsl 15 80 0 1 0 0 bfxfdry bfxfdryinit Dry 0 -9 0 10 #c7c6ff #000000 #000000 0 1;
#X obj 218 47 vsl 15 80 0 1 0 0 bfxfwet bfxfwetinit Wet 0 -9 0 10 #c7c6ff #000000 #000000 0 1;
#X obj 389 264 r bfxfwet;
#X obj 284 264 r bfxfdry;
#X obj 144 288 *~ 1;
#X msg 352 45 \; bfxodinit 2.5 \; bfxsensinit 95 \; bfxdelvolinit 0.2 \; bfxfiltinit 0 \; bfxfbfinit 1000 \; bfxfdirinit 0 \; bfxvolinit 0.7 \; bfxfdryinit 1 \; bfxfwetinit 0 \;;
#X connect 2 0 15 0;
#X connect 4 0 43 0;
#X connect 8 0 26 0;
#X connect 8 1 20 0;
#X connect 9 0 21 0;
#X connect 13 0 20 1;
#X connect 15 0 9 0;
#X connect 16 0 15 1;
#X connect 17 0 42 0;
#X connect 20 0 12 0;
#X connect 25 0 26 1;
#X connect 26 0 11 0;
#X connect 27 0 28 1;
#X connect 28 0 10 0;
#X connect 30 0 28 0;
#X connect 31 0 34 0;
#X connect 32 0 33 0;
#X connect 33 0 35 0;
#X connect 34 0 36 0;
#X connect 37 0 8 0;
#X connect 37 0 30 0;
#X connect 40 0 34 1;
#X connect 41 0 33 1;
#X connect 42 0 18 0;
#X coords 0 -1 1 1 300 130 2 10 10;
#X restore 20 231 pd breaks_fx;
#X obj 166 389 *~;
#X obj 313 389 *~;
#X obj 166 413 throw~ left;
#X obj 313 413 throw~ right;
#X text 176 109 Break vari control: the smaller the value \, the higher the alteration between breaks., f 19;
#X obj 331 337 s bonoff;
#X obj 38 366 r bonoff;
#X obj 184 366 r bonoff;
#X obj 331 366 r bonoff;
#X obj 20 86 r 8th;
#N canvas 177 115 967 298 bank1 0;
#X obj 16 69 slicer;
#X obj 311 69 slicer;
#X obj 609 69 slicer;
#X obj 609 244 *~;
#X obj 311 244 *~;
#X obj 16 244 *~;
#X obj 16 268 throw~ breaks;
#X obj 311 268 throw~ breaks;
#X obj 609 268 throw~ breaks;
#X obj 51 244 r b1;
#X obj 346 244 r b2;
#X obj 644 244 r b3;
#X obj 214 44 r mstrbpm;
#X obj 164 14 r mstrswtch;
#X obj 16 45 bng 19 250 50 0 empty glorest Restart 0 -7 0 8 #fcfcfc #000000 #000000;
#X obj 115 45 bng 19 250 50 0 empty breakrndm New\ pattern 0 -7 0 8 #fcfcfc #000000 #000000;
#X obj 65 14 r break1init;
#X obj 264 14 r break1pres;
#X obj 509 44 r mstrbpm;
#X obj 459 14 r mstrswtch;
#X obj 311 45 bng 19 250 50 0 empty glorest Restart 0 -7 0 8 #fcfcfc #000000 #000000;
#X obj 410 45 bng 19 250 50 0 empty breakrndm New\ pattern 0 -7 0 8 #fcfcfc #000000 #000000;
#X obj 807 44 r mstrbpm;
#X obj 757 14 r mstrswtch;
#X obj 609 45 bng 19 250 50 0 empty glorest Restart 0 -7 0 8 #fcfcfc #000000 #000000;
#X obj 708 45 bng 19 250 50 0 empty breakrndm New\ pattern 0 -7 0 8 #fcfcfc #000000 #000000;
#X obj 360 14 r break2init;
#X obj 559 14 r break2pres;
#X obj 658 14 r break3init;
#X obj 857 14 r break3pres;
#X connect 0 0 5 0;
#X connect 1 0 4 0;
#X connect 2 0 3 0;
#X connect 3 0 8 0;
#X connect 4 0 7 0;
#X connect 5 0 6 0;
#X connect 9 0 5 1;
#X connect 10 0 4 1;
#X connect 11 0 3 1;
#X connect 12 0 0 4;
#X connect 13 0 0 3;
#X connect 14 0 0 0;
#X connect 15 0 0 2;
#X connect 16 0 0 1;
#X connect 17 0 0 5;
#X connect 18 0 1 4;
#X connect 19 0 1 3;
#X connect 20 0 1 0;
#X connect 21 0 1 2;
#X connect 22 0 2 4;
#X connect 23 0 2 3;
#X connect 24 0 2 0;
#X connect 25 0 2 2;
#X connect 26 0 1 1;
#X connect 27 0 1 5;
#X connect 28 0 2 1;
#X connect 29 0 2 5;
#X restore 20 14 pd bank1;
#X text 85 13 Breaks BANK 1 (Amen);
#N canvas 192 182 957 303 bank2 0;
#X obj 16 69 slicer;
#X obj 311 69 slicer;
#X obj 609 69 slicer;
#X obj 609 244 *~;
#X obj 311 244 *~;
#X obj 16 244 *~;
#X obj 16 268 throw~ breaks;
#X obj 311 268 throw~ breaks;
#X obj 609 268 throw~ breaks;
#X obj 51 244 r b4;
#X obj 346 244 r b5;
#X obj 644 244 r b6;
#X obj 214 44 r mstrbpm;
#X obj 164 14 r mstrswtch;
#X obj 16 45 bng 19 250 50 0 empty glorest Restart 0 -7 0 8 #fcfcfc #000000 #000000;
#X obj 115 45 bng 19 250 50 0 empty breakrndm New\ pattern 0 -7 0 8 #fcfcfc #000000 #000000;
#X obj 509 44 r mstrbpm;
#X obj 459 14 r mstrswtch;
#X obj 311 45 bng 19 250 50 0 empty glorest Restart 0 -7 0 8 #fcfcfc #000000 #000000;
#X obj 410 45 bng 19 250 50 0 empty breakrndm New\ pattern 0 -7 0 8 #fcfcfc #000000 #000000;
#X obj 807 44 r mstrbpm;
#X obj 757 14 r mstrswtch;
#X obj 609 45 bng 19 250 50 0 empty glorest Restart 0 -7 0 8 #fcfcfc #000000 #000000;
#X obj 708 45 bng 19 250 50 0 empty breakrndm New\ pattern 0 -7 0 8 #fcfcfc #000000 #000000;
#X obj 65 14 r break4init;
#X obj 264 14 r break4pres;
#X obj 360 14 r break5init;
#X obj 559 14 r break5pres;
#X obj 658 14 r break6init;
#X obj 857 14 r break6pres;
#X connect 0 0 5 0;
#X connect 1 0 4 0;
#X connect 2 0 3 0;
#X connect 3 0 8 0;
#X connect 4 0 7 0;
#X connect 5 0 6 0;
#X connect 9 0 5 1;
#X connect 10 0 4 1;
#X connect 11 0 3 1;
#X connect 12 0 0 4;
#X connect 13 0 0 3;
#X connect 14 0 0 0;
#X connect 15 0 0 2;
#X connect 16 0 1 4;
#X connect 17 0 1 3;
#X connect 18 0 1 0;
#X connect 19 0 1 2;
#X connect 20 0 2 4;
#X connect 21 0 2 3;
#X connect 22 0 2 0;
#X connect 23 0 2 2;
#X connect 24 0 0 1;
#X connect 25 0 0 5;
#X connect 26 0 1 1;
#X connect 27 0 1 5;
#X connect 28 0 2 1;
#X connect 29 0 2 5;
#X restore 20 43 pd bank2;
#X text 85 42 Breaks BANK 2 (Other);
#X text 332 229 FX chain & filter section;
#X connect 1 0 0 0;
#X connect 2 0 10 0;
#X connect 4 0 1 0;
#X connect 4 1 5 0;
#X connect 4 2 6 0;
#X connect 5 0 7 0;
#X connect 6 0 8 0;
#X connect 11 0 1 1;
#X connect 12 0 5 1;
#X connect 13 0 6 1;
#X connect 14 0 3 0;
#X restore 29 262 pd breaks;
#X obj 109 78 bng 25 250 50 0 glorest empty Pattern\ restart 30 12 0 12 #c6feff #000000 #000000;
#X obj 109 48 bng 25 250 50 0 glonewpat glonewpatinit New\ patterns 30 12 0 12 #e3c6ff #000000 #000000;
#X obj 639 19 tgl 19 0 empty trackmodetoginit Trackmode\ On/Off 22 10 0 10 #fcfcfc #000000 #000000 0 1;
#X obj 536 350 tgl 19 0 empty padstoginit empty 22 10 0 10 #fcfcfc #000000 #000000 0 1;
#X obj 289 146 s hlf;
#X text 380 253 dorian;
#X text 366 268 phrygian;
#X text 380 283 lydian;
#X text 373 313 aeolian;
#X text 373 328 locrian;
#X text 352 298 mixolydian;
#X text 317 343 lydian dominant;
#X text 331 358 super locrian;
#X text 310 373 minor pentatonic;
#X text 310 388 major pentatonic;
#X text 345 403 minor blues;
#X text 345 418 major blues;
#X obj 439 255 vradio 15 1 0 14 gloscale gloscaleinit empty 0 -8 0 10 #fcfcfc #000000 #000000 0;
#X text 275 433 whole half diminished;
#X text 275 448 half whole diminished;
#X text 638 70 Track structuring and overall arrangement., f 17;
#X obj 536 294 tgl 19 0 empty pbasstoginit empty 22 10 0 10 #fcfcfc #000000 #000000 0 1;
#X obj 536 406 tgl 19 0 empty blipstoginit empty 22 10 0 10 #fcfcfc #000000 #000000 0 1;
#N canvas 305 25 619 598 sbass 0;
#X obj 22 304 scaleculator;
#X floatatom 22 539 2 0 0 1 Index - - 0;
#X floatatom 215 539 4 0 0 1 Note - - 0;
#X floatatom 215 281 2 0 0 1 Arr.\ Pos. - - 0;
#X obj 22 110 bng 19 250 50 0 empty empty empty 0 -10 0 12 #ff8300 #000000 #000000;
#X obj 22 155 frauke;
#X obj 56 110 bng 19 250 50 0 empty glonewpat New\ pattern 0 -7 0 8 #fcfcfc #000000 #000000;
#X text 135 155 Frauke sequencer, f 11;
#X obj 22 281 r basenote;
#X obj 118 281 r gloscale;
#X obj 337 468 throw~ all;
#X obj 337 444 *~;
#N canvas 545 201 165 201 randomseq 0;
#X obj 23 17 inlet;
#X obj 23 72 i;
#X obj 23 96 + 1;
#X obj 23 144 sel 0;
#X floatatom 63 96 5 0 0 0 - - - 0;
#X obj 63 72 random;
#X obj 23 120 mod;
#X obj 102 17 inlet;
#X obj 23 168 outlet;
#X obj 23 41 t b b;
#X connect 0 0 9 0;
#X connect 1 0 2 0;
#X connect 2 0 6 0;
#X connect 3 0 8 0;
#X connect 4 0 6 1;
#X connect 5 0 4 0;
#X connect 6 0 3 0;
#X connect 6 0 1 1;
#X connect 7 0 5 1;
#X connect 9 0 1 0;
#X connect 9 1 5 0;
#X restore 22 69 pd randomseq;
#X text 225 36 No particular reason in taking the scale index for the random value :), f 28;
#X obj 103 38 r sbasssclindex;
#X obj 90 110 r sbasssclindex;
#X obj 125 132 r sbassfraukevar;
#X obj 22 562 s sbasssclindex;
#X obj 215 562 s sbassposnote;
#X obj 215 257 r sbasscallpos;
#X obj 337 281 r sbassposnote;
#X obj 520 281 r sbasspres;
#X obj 22 233 s sbasscallpos;
#X obj 337 304 subbass_redux;
#X obj 22 14 r 8th;
#X obj 68 14 inlet;
#X text 108 13 On/Off;
#X obj 22 38 spigot, f 7;
#X obj 355 419 inlet;
#X connect 0 0 1 0;
#X connect 0 1 2 0;
#X connect 1 0 17 0;
#X connect 2 0 18 0;
#X connect 3 0 0 2;
#X connect 4 0 5 0;
#X connect 5 0 22 0;
#X connect 6 0 5 1;
#X connect 8 0 0 0;
#X connect 9 0 0 1;
#X connect 11 0 10 0;
#X connect 12 0 4 0;
#X connect 14 0 12 1;
#X connect 15 0 5 2;
#X connect 16 0 5 3;
#X connect 19 0 3 0;
#X connect 20 0 23 0;
#X connect 21 0 23 1;
#X connect 23 0 11 0;
#X connect 24 0 27 0;
#X connect 25 0 27 1;
#X connect 27 0 12 0;
#X connect 28 0 11 1;
#X restore 536 262 pd sbass;
#X f 9;
#N canvas 310 31 612 606 pbass 0;
#X obj 22 315 scaleculator;
#X floatatom 22 550 2 0 0 1 Index - - 0;
#X floatatom 215 550 4 0 0 1 Note - - 0;
#X floatatom 215 284 2 0 0 1 Arr.\ Pos. - - 0;
#X obj 22 108 bng 19 250 50 0 empty empty empty 0 -10 0 12 #ff8300 #000000 #000000;
#X obj 333 315 subbass;
#X obj 22 153 frauke;
#X obj 56 108 bng 19 250 50 0 empty glonewpat New\ pattern 0 -7 0 8 #fcfcfc #000000 #000000;
#X text 135 153 Frauke sequencer, f 11;
#X obj 22 284 r basenote;
#X obj 118 284 r gloscale;
#N canvas 626 25 157 258 randomseq 0;
#X obj 23 17 inlet;
#X obj 23 120 i;
#X obj 23 144 + 1;
#X obj 23 192 sel 0;
#X obj 23 168 mod;
#X obj 23 216 outlet;
#X obj 23 41 t b b;
#X obj 63 72 random 4;
#X obj 63 96 * 8;
#X obj 63 120 pow 2;
#X floatatom 63 144 5 0 0 0 - - - 0;
#X connect 0 0 6 0;
#X connect 1 0 2 0;
#X connect 2 0 4 0;
#X connect 3 0 5 0;
#X connect 4 0 3 0;
#X connect 4 0 1 1;
#X connect 6 0 1 0;
#X connect 6 1 7 0;
#X connect 7 0 8 0;
#X connect 8 0 9 0;
#X connect 9 0 10 0;
#X connect 10 0 4 1;
#X restore 22 69 pd randomseq;
#X obj 22 14 r 8th;
#X obj 90 108 r pbasssclindex;
#X obj 125 130 r pbassfraukevar;
#X obj 22 231 s pbasscallpos;
#X obj 22 573 s pbasssclindex;
#X obj 215 573 s pbassposnote;
#X obj 215 260 r pbasscallpos;
#X obj 333 285 r pbassposnote;
#X obj 516 285 r pbasspres;
#X obj 68 14 inlet;
#X text 108 13 On/Off;
#X obj 333 508 throw~ all;
#X obj 333 481 *~;
#X obj 22 38 spigot, f 7;
#X obj 351 456 inlet;
#X connect 0 0 1 0;
#X connect 0 1 2 0;
#X connect 1 0 16 0;
#X connect 2 0 17 0;
#X connect 3 0 0 2;
#X connect 4 0 6 0;
#X connect 5 0 24 0;
#X connect 6 0 15 0;
#X connect 7 0 6 1;
#X connect 9 0 0 0;
#X connect 10 0 0 1;
#X connect 11 0 4 0;
#X connect 12 0 25 0;
#X connect 13 0 6 2;
#X connect 14 0 6 3;
#X connect 18 0 3 0;
#X connect 19 0 5 0;
#X connect 20 0 5 1;
#X connect 21 0 25 1;
#X connect 24 0 23 0;
#X connect 25 0 11 0;
#X connect 26 0 24 1;
#X restore 536 318 pd pbass;
#X f 9;
#N canvas 81 86 551 598 pads 0;
#X obj 172 101 scaleculator;
#X floatatom 172 336 2 0 0 1 Index - - 0;
#X floatatom 365 336 4 0 0 1 Note - - 0;
#X floatatom 365 76 2 0 0 1 Arr.\ Pos. - - 0;
#X obj 172 359 s padssclindex;
#X obj 365 382 s padsposnote;
#X obj 365 52 r padscallpos;
#X obj 172 76 r basenote;
#X obj 268 76 r gloscale;
#X obj 256 558 throw~ left;
#X obj 340 558 throw~ right;
#X obj 172 558 throw~ all, f 11;
#X obj 172 532 *~;
#X obj 172 11 inlet;
#X obj 256 532 *~;
#X obj 340 532 *~;
#X obj 22 240 bng 19 250 50 0 empty empty empty 0 -10 0 12 #ff8300 #000000 #000000;
#X obj 22 341 s padscallpos;
#X obj 365 359 +;
#X floatatom 431 336 3 0 0 0 - - - 0;
#X text 458 337 Octaver;
#X obj 431 282 octaver;
#X obj 431 258 r padsoctinit;
#X obj 172 35 s padsvols;
#X obj 190 508 r padsvols;
#X obj 274 508 r padsvols;
#X obj 358 508 r padsvols;
#X obj 68 11 inlet;
#X text 108 10 On/Off;
#X obj 22 35 spigot, f 7;
#X obj 22 266 i;
#X obj 22 314 mod;
#X obj 57 290 r padssclindex;
#X obj 22 102 herrmann;
#X obj 22 11 r 1b;
#X obj 22 290 + 2;
#X obj 94 76 bng 19 250 50 0 empty glonewpat New\ pattern 0 -7 0 8 #fcfcfc #000000 #000000;
#X obj 53 76 bng 19 250 50 0 empty glorest Restart 0 -7 0 8 #fcfcfc #000000 #000000;
#N canvas 177 127 961 440 paddy 0;
#X obj 241 249 *~;
#X obj 241 325 hip~ 5;
#X obj 338 325 hip~ 5;
#X obj 431 325 hip~ 5;
#X obj 16 13 loadbang;
#X obj 350 84 pack;
#X obj 241 370 outlet~;
#X obj 338 370 outlet~;
#X obj 431 370 outlet~;
#X text 336 392 Left out;
#X text 429 392 Right out;
#X text 239 392 Mono out;
#X obj 59 261 nbx 4 16 -1e+37 1e+37 0 0 pattack pattackinit Attack -45 8 0 12 #fcfcfc #000000 #000000 0 256;
#X obj 59 282 nbx 4 16 -1e+37 1e+37 0 0 pdecay pdecayinit Decay -40 8 0 12 #fcfcfc #000000 #000000 0 256;
#X obj 360 59 t b f;
#X obj 62 303 hsl 45 16 0.01 1 1 0 pamp pampinit Ampl. -40 8 0 12 #fcfcfc #000000 #000000 0 1;
#X obj 241 133 clone tonestar 4;
#X obj 241 84 r padsposnote;
#X msg 241 108 all \$1;
#X obj 512 39 simpledelay;
#X obj 720 13 r mstrbpm;
#X obj 616 13 tgl 19 0 empty paddelinit empty 0 -10 0 12 #fcfcfc #000000 #000000 0 1;
#X obj 512 219 simpledelay;
#X obj 616 193 tgl 19 0 empty paddelinit empty 0 -10 0 12 #fcfcfc #000000 #000000 0 1;
#X obj 720 193 r mstrbpm;
#X obj 512 144 throw~ padz;
#X obj 512 324 throw~ padz;
#X obj 338 301 rev3~ 89 97 6000 10;
#X obj 825 13 r paddellpres;
#X obj 825 193 r paddelrpres;
#X obj 350 13 r pattack;
#X obj 360 36 r pdecay;
#X obj 338 249 r~ padzl;
#X obj 364 275 r~ padzr;
#X obj 603 324 s~ padzr;
#X obj 603 144 s~ padzl;
#X obj 341 167 s~ padzdel;
#X obj 512 13 r~ padzdel;
#X obj 512 193 r~ padzdel;
#X obj 241 202 catch~ padz;
#X obj 241 301 *~ 0.7;
#X obj 241 167 throw~ padz;
#X obj 259 225 r pamp;
#X msg 350 108 all \$1 \$2;
#X msg 16 43 \; pattackinit 650 \; pdecayinit 3250 \; pampinit 0.3 \; paddelinit 1 \; paddellpres 0.4 7 250 4000 \; paddelrpres 0.4 8 250 2500 \;;
#X connect 0 0 40 0;
#X connect 0 0 27 0;
#X connect 0 0 27 1;
#X connect 1 0 6 0;
#X connect 2 0 7 0;
#X connect 3 0 8 0;
#X connect 4 0 44 0;
#X connect 5 0 43 0;
#X connect 14 0 5 0;
#X connect 14 1 5 1;
#X connect 16 0 36 0;
#X connect 16 0 41 0;
#X connect 17 0 18 0;
#X connect 18 0 16 0;
#X connect 19 0 25 0;
#X connect 19 0 35 0;
#X connect 20 0 19 2;
#X connect 21 0 19 1;
#X connect 22 0 26 0;
#X connect 22 0 34 0;
#X connect 23 0 22 1;
#X connect 24 0 22 2;
#X connect 27 0 2 0;
#X connect 27 1 3 0;
#X connect 28 0 19 3;
#X connect 29 0 22 3;
#X connect 30 0 5 0;
#X connect 31 0 14 0;
#X connect 32 0 27 0;
#X connect 33 0 27 1;
#X connect 37 0 19 0;
#X connect 38 0 22 0;
#X connect 39 0 0 0;
#X connect 40 0 1 0;
#X connect 42 0 0 1;
#X connect 43 0 16 1;
#X coords 0 -1 1 1 120 80 2 5 250;
#X restore 172 412 pd paddy;
#X connect 0 0 1 0;
#X connect 0 1 2 0;
#X connect 1 0 4 0;
#X connect 2 0 18 0;
#X connect 3 0 0 2;
#X connect 6 0 3 0;
#X connect 7 0 0 0;
#X connect 8 0 0 1;
#X connect 12 0 11 0;
#X connect 13 0 23 0;
#X connect 14 0 9 0;
#X connect 15 0 10 0;
#X connect 16 0 30 0;
#X connect 18 0 5 0;
#X connect 19 0 18 1;
#X connect 21 0 19 0;
#X connect 22 0 21 0;
#X connect 24 0 12 1;
#X connect 25 0 14 1;
#X connect 26 0 15 1;
#X connect 27 0 29 1;
#X connect 29 0 33 0;
#X connect 30 0 35 0;
#X connect 31 0 30 1;
#X connect 31 0 17 0;
#X connect 32 0 31 1;
#X connect 33 0 16 0;
#X connect 34 0 29 0;
#X connect 35 0 31 0;
#X connect 36 0 33 2;
#X connect 37 0 33 1;
#X connect 38 0 12 0;
#X connect 38 1 14 0;
#X connect 38 2 15 0;
#X restore 536 374 pd pads;
#X f 9;
#N canvas 365 32 421 740 blips 0;
#X obj 22 295 scaleculator;
#X floatatom 22 531 2 0 0 1 Index - - 0;
#X floatatom 215 531 4 0 0 1 Note - - 0;
#X floatatom 215 271 2 0 0 1 Arr.\ Pos. - - 0;
#X obj 22 271 r basenote;
#X obj 118 271 r gloscale;
#X obj 108 701 throw~ left;
#X obj 194 701 throw~ right;
#X obj 22 701 throw~ all, f 11;
#X obj 22 675 *~;
#X obj 108 675 *~;
#X obj 194 675 *~;
#X floatatom 291 531 3 0 0 0 - - - 0;
#X obj 22 95 bng 19 250 50 0 empty empty empty 0 -10 0 12 #ff8300 #000000 #000000;
#X obj 22 140 frauke;
#X obj 56 95 bng 19 250 50 0 empty glonewpat New\ pattern 0 -7 0 8 #fcfcfc #000000 #000000;
#X text 135 140 Frauke sequencer, f 11;
#X obj 215 554 +;
#X text 318 532 Octaver;
#X obj 96 35 r blipssclindex;
#X obj 22 218 s blipscallpos;
#X obj 90 95 r blipssclindex;
#X obj 125 117 r blipsfraukevar;
#X obj 215 247 r blipscallpos;
#X obj 22 554 s blipssclindex;
#X obj 215 577 s blipsposnote;
#N canvas 152 -679 140 265 blipsseq 0;
#X obj 11 12 inlet;
#X obj 11 231 outlet;
#X obj 11 43 i;
#X obj 11 91 mod;
#X obj 11 67 + 1;
#X obj 44 175 random;
#X obj 44 120 sel 0;
#X obj 11 203 sel;
#X obj 44 152 bng 15 250 50 0 empty empty empty 17 7 0 10 #fcfcfc #000000 #000000;
#X obj 83 12 inlet;
#X connect 0 0 2 0;
#X connect 2 0 4 0;
#X connect 3 0 2 1;
#X connect 3 0 6 0;
#X connect 3 0 7 0;
#X connect 4 0 3 0;
#X connect 5 0 7 1;
#X connect 6 1 8 0;
#X connect 7 0 1 0;
#X connect 8 0 5 0;
#X connect 9 0 3 1;
#X connect 9 0 5 1;
#X restore 22 59 pd blipsseq;
#N canvas 623 25 300 395 blips 0;
#X obj 33 25 r blipsposnote;
#X obj 33 329 hip~ 5;
#X obj 130 329 hip~ 5;
#X obj 193 329 hip~ 5;
#X floatatom 33 47 5 0 0 0 - - - 0;
#X obj 33 68 mtof;
#X obj 101 116 vline~;
#X obj 33 175 *~;
#X obj 33 140 osc~;
#X obj 33 354 outlet~;
#X obj 130 354 outlet~;
#X obj 193 354 outlet~;
#X obj 33 201 *~ 0.15;
#X obj 33 305 *~ 0.3;
#X obj 130 305 rev2~ 97 92 8000 10;
#X msg 101 92 1 5 \, 0 25 7;
#X obj 101 140 pow~ 2;
#X connect 0 0 4 0;
#X connect 1 0 9 0;
#X connect 2 0 10 0;
#X connect 3 0 11 0;
#X connect 4 0 5 0;
#X connect 5 0 8 0;
#X connect 5 0 15 0;
#X connect 6 0 16 0;
#X connect 7 0 12 0;
#X connect 8 0 7 0;
#X connect 12 0 13 0;
#X connect 12 0 14 0;
#X connect 13 0 1 0;
#X connect 14 0 2 0;
#X connect 14 1 3 0;
#X connect 15 0 6 0;
#X connect 16 0 7 1;
#X restore 22 607 pd blips;
#X f 25;
#X obj 223 11 inlet;
#X obj 223 35 s blipsvols;
#X obj 40 641 r blipsvols;
#X obj 126 641 r blipsvols;
#X obj 212 641 r blipsvols;
#X obj 291 477 octaver;
#X obj 291 453 r blipsoctinit;
#X obj 22 11 r 8th;
#X obj 68 11 inlet;
#X text 108 10 On/Off;
#X obj 22 35 spigot, f 7;
#X connect 0 0 1 0;
#X connect 0 1 2 0;
#X connect 1 0 24 0;
#X connect 2 0 17 0;
#X connect 3 0 0 2;
#X connect 4 0 0 0;
#X connect 5 0 0 1;
#X connect 9 0 8 0;
#X connect 10 0 6 0;
#X connect 11 0 7 0;
#X connect 12 0 17 1;
#X connect 13 0 14 0;
#X connect 14 0 20 0;
#X connect 15 0 14 1;
#X connect 17 0 25 0;
#X connect 19 0 26 1;
#X connect 21 0 14 2;
#X connect 22 0 14 3;
#X connect 23 0 3 0;
#X connect 26 0 13 0;
#X connect 27 0 9 0;
#X connect 27 1 10 0;
#X connect 27 2 11 0;
#X connect 28 0 29 0;
#X connect 30 0 9 1;
#X connect 31 0 10 1;
#X connect 32 0 11 1;
#X connect 33 0 12 0;
#X connect 34 0 33 0;
#X connect 35 0 38 0;
#X connect 36 0 38 1;
#X connect 38 0 26 0;
#X restore 536 430 pd blips;
#X f 9;
#X obj 29 294 tgl 19 0 empty hatsstoginit empty 22 10 0 10 #fcfcfc #000000 #000000 0 1;
#N canvas 448 25 328 444 hats 0;
#X obj 104 405 throw~ left;
#X obj 190 405 throw~ right;
#X obj 18 405 throw~ all, f 11;
#X obj 18 379 *~;
#X obj 126 14 inlet;
#X obj 104 379 *~;
#X obj 190 379 *~;
#N canvas 230 142 373 356 hats 0;
#X obj 14 137 f;
#X obj 14 300 hip~ 500;
#X obj 191 300 hip~ 500;
#X obj 284 300 hip~ 500;
#X obj 273 145 snapshot~;
#X obj 273 169 + 1;
#X obj 273 193 / 2;
#X floatatom 273 241 5 0 0 0 - - - 0;
#X obj 190 276 rev2~ 80 15 7000 25;
#X obj 273 217 * 97;
#X obj 273 118 osc~ 0.04;
#N canvas 797 313 445 344 ohat 0;
#X obj 318 178 vline~;
#X obj 300 248 *~;
#X obj 25 170 noise~;
#X obj 200 178 line;
#X msg 25 141 seed 2546;
#X obj 25 248 +~;
#X obj 99 223 *~;
#X obj 300 273 expr~ atan($v1);
#X obj 99 170 phasor~ 440;
#X obj 99 141 line;
#X obj 181 248 vcf~ 5;
#X msg 99 115 660 \, 440 \$1;
#X obj 25 24 inlet;
#X obj 25 115 bng 15 250 50 0 empty empty empty 17 7 0 10 #fcfcfc #000000 #000000;
#X obj 300 297 outlet~;
#X obj 318 202 pow~ 2;
#X msg 200 154 12000 \, 5000 \$1;
#X obj 117 192 osc~ 12;
#X msg 318 153 1 2 \, 0 \$1 2;
#X connect 0 0 15 0;
#X connect 1 0 7 0;
#X connect 2 0 5 0;
#X connect 3 0 10 1;
#X connect 4 0 2 0;
#X connect 5 0 10 0;
#X connect 6 0 5 1;
#X connect 7 0 14 0;
#X connect 8 0 6 0;
#X connect 9 0 8 0;
#X connect 10 0 1 0;
#X connect 11 0 9 0;
#X connect 12 0 13 0;
#X connect 12 0 11 0;
#X connect 12 0 16 0;
#X connect 12 0 18 0;
#X connect 13 0 4 0;
#X connect 15 0 1 1;
#X connect 16 0 3 0;
#X connect 17 0 6 1;
#X connect 18 0 0 0;
#X restore 14 169 pd ohat;
#N canvas 797 313 445 344 chat 0;
#X obj 318 178 vline~;
#X obj 300 248 *~;
#X obj 25 170 noise~;
#X obj 200 178 line;
#X obj 25 248 +~;
#X obj 99 223 *~;
#X obj 99 170 phasor~ 440;
#X obj 99 141 line;
#X msg 99 115 660 \, 440 \$1;
#X obj 25 17 inlet;
#X obj 25 115 bng 15 250 50 0 empty empty empty 17 7 0 10 #fcfcfc #000000 #000000;
#X obj 300 297 outlet~;
#X obj 319 202 pow~ 3;
#X obj 117 192 osc~ 60;
#X obj 200 84 pack f f;
#X obj 200 36 t f b;
#X obj 300 273 expr~ sin($v1);
#X obj 181 248 vcf~ 6;
#X msg 318 153 1.1 3 \, 0 \$1 12;
#X msg 25 141 seed 1313;
#X obj 200 60 * 2;
#X msg 200 154 10000 \, \$2 \$1;
#X obj 253 57 expr random(5 \, 8)*1000;
#X connect 0 0 12 0;
#X connect 1 0 16 0;
#X connect 2 0 4 0;
#X connect 3 0 17 1;
#X connect 4 0 17 0;
#X connect 5 0 4 1;
#X connect 6 0 5 0;
#X connect 7 0 6 0;
#X connect 8 0 7 0;
#X connect 9 0 10 0;
#X connect 9 0 8 0;
#X connect 9 0 18 0;
#X connect 9 0 15 0;
#X connect 10 0 19 0;
#X connect 12 0 1 1;
#X connect 13 0 5 1;
#X connect 14 0 21 0;
#X connect 15 0 20 0;
#X connect 15 1 22 0;
#X connect 16 0 11 0;
#X connect 17 0 1 0;
#X connect 18 0 0 0;
#X connect 19 0 2 0;
#X connect 20 0 14 0;
#X connect 21 0 3 0;
#X connect 22 0 14 1;
#X restore 204 169 pd chat;
#X obj 204 35 t b b;
#X obj 204 137 f;
#X obj 14 11 inlet;
#X obj 14 35 t b b;
#X floatatom 32 86 5 0 0 0 - - - 0;
#X obj 14 325 outlet~;
#X obj 191 325 outlet~;
#X obj 284 325 outlet~;
#X obj 204 11 inlet;
#X obj 222 67 random 700;
#X obj 32 62 expr (random(10 \, 20)*5);
#X obj 222 91 + 100;
#X obj 14 232 *~ 0.3;
#X obj 14 276 *~ 0.3;
#X connect 0 0 11 0;
#X connect 1 0 18 0;
#X connect 2 0 19 0;
#X connect 3 0 20 0;
#X connect 4 0 5 0;
#X connect 5 0 6 0;
#X connect 6 0 9 0;
#X connect 7 0 8 2;
#X connect 8 0 2 0;
#X connect 8 1 3 0;
#X connect 9 0 7 0;
#X connect 10 0 4 0;
#X connect 11 0 25 0;
#X connect 12 0 25 0;
#X connect 13 0 14 0;
#X connect 13 1 22 0;
#X connect 14 0 12 0;
#X connect 15 0 16 0;
#X connect 16 0 0 0;
#X connect 16 1 23 0;
#X connect 17 0 0 1;
#X connect 21 0 4 0;
#X connect 21 0 13 0;
#X connect 22 0 24 0;
#X connect 23 0 17 0;
#X connect 24 0 14 1;
#X connect 25 0 8 0;
#X connect 25 0 26 0;
#X connect 26 0 1 0;
#X restore 18 331 pd hats;
#X f 25;
#X obj 18 190 herrmann;
#X obj 190 190 herrmann;
#X obj 262 163 bng 19 250 50 0 empty glonewpat New\ pattern 0 -7 0 8 #fcfcfc #000000 #000000;
#X obj 190 78 r 8th;
#X obj 221 163 bng 19 250 50 0 empty glorest Restart 0 -7 0 8 #fcfcfc #000000 #000000;
#X obj 90 163 bng 19 250 50 0 empty glonewpat New\ pattern 0 -7 0 8 #fcfcfc #000000 #000000;
#X obj 49 163 bng 19 250 50 0 empty glorest Restart 0 -7 0 8 #fcfcfc #000000 #000000;
#X obj 18 78 r 16th;
#X obj 18 14 inlet;
#X text 58 13 On/Off;
#X obj 18 38 s htog;
#X obj 18 127 spigot;
#X obj 190 127 spigot;
#X obj 57 103 r htog;
#X obj 229 103 r htog;
#X obj 126 38 s hvol;
#X obj 36 356 r hvol;
#X obj 122 356 r hvol;
#X obj 208 356 r hvol;
#X connect 3 0 2 0;
#X connect 4 0 23 0;
#X connect 5 0 0 0;
#X connect 6 0 1 0;
#X connect 7 0 3 0;
#X connect 7 1 5 0;
#X connect 7 2 6 0;
#X connect 8 0 7 0;
#X connect 9 0 7 1;
#X connect 10 0 9 2;
#X connect 11 0 20 0;
#X connect 12 0 9 1;
#X connect 13 0 8 2;
#X connect 14 0 8 1;
#X connect 15 0 19 0;
#X connect 16 0 18 0;
#X connect 19 0 8 0;
#X connect 20 0 9 0;
#X connect 21 0 19 1;
#X connect 22 0 20 1;
#X connect 24 0 3 1;
#X connect 25 0 5 1;
#X connect 26 0 6 1;
#X restore 29 318 pd hats;
#X f 9;
#X text 100 317 Some hihats;
#X obj 396 146 s 16th;
#X text 100 261 Break(s) slicer;
#X obj 536 462 tgl 19 0 empty melztoginit empty 22 10 0 10 #fcfcfc #000000 #000000 0 1;
#N canvas 434 123 407 649 melz 0;
#X obj 22 185 scaleculator;
#X floatatom 22 420 2 0 0 1 Index - - 0;
#X floatatom 215 420 4 0 0 1 Note - - 0;
#X floatatom 215 159 2 0 0 1 Arr.\ Pos. - - 0;
#X obj 22 159 r basenote;
#X obj 118 159 r gloscale;
#X obj 108 610 throw~ left;
#X obj 194 610 throw~ right;
#X obj 22 610 throw~ all, f 11;
#X obj 22 584 *~;
#X obj 179 10 inlet;
#X obj 108 584 *~;
#X obj 194 584 *~;
#X obj 22 60 bng 19 250 50 0 empty empty empty 0 -10 0 12 #ff8300 #000000 #000000;
#X obj 215 443 +;
#X obj 22 104 s melzcallpos;
#X obj 215 135 r melzcallpos;
#X obj 215 466 s melzposnote;
#X obj 22 443 s melzsclindex;
#N canvas 127 40 495 689 melz 0;
#X obj 120 629 hip~ 5;
#X obj 183 629 hip~ 5;
#X floatatom 23 37 5 0 0 0 - - - 0;
#X obj 23 58 mtof;
#X obj 131 252 vline~;
#X obj 23 305 *~;
#X obj 23 654 outlet~;
#X obj 120 654 outlet~;
#X obj 183 654 outlet~;
#X obj 23 15 r melzposnote;
#X obj 23 629 hip~ 5;
#X obj 131 197 f;
#X obj 181 127 snapshot~;
#X obj 131 103 t b b;
#X obj 131 369 delread4~ melzdub;
#X obj 185 534 snapshot~;
#X obj 131 467 threshold~ 0.2 100 0.1 10, f 14;
#X obj 73 228 osc~;
#X obj 23 282 +~;
#X obj 73 252 *~ 0.4;
#X obj 23 252 *~ 0.4;
#X obj 73 197 * 2.02;
#X obj 131 282 pow~ 3;
#X obj 23 412 *~ 0.3;
#X obj 23 605 *~ 0.2;
#X obj 391 15 r 1b;
#X msg 269 82 0, f 1;
#X obj 391 39 i;
#X obj 391 63 + 1;
#X obj 391 87 mod 4;
#X obj 391 111 sel 0;
#X obj 391 135 bng 19 250 50 0 empty empty empty 0 -10 0 12 #fcfcfc #000000 #000000;
#X msg 266 488 0, f 1;
#X obj 185 558 * 49;
#X obj 185 582 + 50;
#X msg 212 301 0, f 1;
#X obj 185 510 phasor~ 0.17;
#X obj 181 103 phasor~ -0.17;
#X obj 131 322 phasor~ 0.34;
#X obj 131 393 *~ 2.1;
#X obj 391 159 s melzfxres;
#X obj 269 61 r melzfxres;
#X obj 212 280 r melzfxres;
#X obj 266 467 r melzfxres;
#X obj 23 228 osc~;
#X msg 131 228 1 2 \, 0 \$1 5;
#X obj 120 605 rev2~ 89 78 7500 10;
#X obj 131 345 *~ 50;
#X obj 131 432 delwrite~ melzdub 50;
#X obj 181 175 + 15;
#X obj 181 150 * 185;
#X connect 0 0 7 0;
#X connect 1 0 8 0;
#X connect 2 0 3 0;
#X connect 3 0 13 0;
#X connect 3 0 21 0;
#X connect 3 0 44 0;
#X connect 4 0 22 0;
#X connect 5 0 23 0;
#X connect 9 0 2 0;
#X connect 10 0 6 0;
#X connect 11 0 45 0;
#X connect 12 0 50 0;
#X connect 13 0 11 0;
#X connect 13 1 12 0;
#X connect 14 0 39 0;
#X connect 15 0 33 0;
#X connect 16 0 15 0;
#X connect 17 0 19 0;
#X connect 18 0 5 0;
#X connect 19 0 18 1;
#X connect 20 0 18 0;
#X connect 21 0 17 0;
#X connect 22 0 5 1;
#X connect 23 0 16 0;
#X connect 23 0 24 0;
#X connect 23 0 46 0;
#X connect 23 0 48 0;
#X connect 24 0 10 0;
#X connect 25 0 27 0;
#X connect 26 0 37 1;
#X connect 27 0 28 0;
#X connect 28 0 29 0;
#X connect 29 0 27 1;
#X connect 29 0 30 0;
#X connect 30 0 31 0;
#X connect 31 0 40 0;
#X connect 32 0 36 1;
#X connect 33 0 34 0;
#X connect 34 0 46 2;
#X connect 35 0 38 1;
#X connect 36 0 15 0;
#X connect 37 0 12 0;
#X connect 38 0 47 0;
#X connect 39 0 23 0;
#X connect 41 0 26 0;
#X connect 42 0 35 0;
#X connect 43 0 32 0;
#X connect 44 0 20 0;
#X connect 45 0 4 0;
#X connect 46 0 0 0;
#X connect 46 1 1 0;
#X connect 47 0 14 0;
#X connect 49 0 11 1;
#X connect 50 0 49 0;
#X restore 22 506 pd melz;
#X f 25;
#N canvas 250 43 259 255 simplearp 0;
#X obj 15 17 inlet;
#X obj 15 63 i;
#X obj 15 216 outlet;
#X obj 15 152 mod 7;
#X obj 94 110 random 7;
#X obj 94 133 + 1;
#X obj 35 178 sel 0;
#X obj 147 87 r melzsclindex;
#X obj 15 87 - 2;
#X obj 94 44 random 2;
#X obj 94 68 + 1;
#X connect 0 0 1 0;
#X connect 1 0 8 0;
#X connect 3 0 2 0;
#X connect 3 0 1 1;
#X connect 3 0 6 0;
#X connect 4 0 5 0;
#X connect 5 0 3 1;
#X connect 6 0 4 0;
#X connect 6 0 9 0;
#X connect 7 0 4 1;
#X connect 8 0 3 0;
#X connect 9 0 10 0;
#X connect 10 0 8 1;
#X restore 22 82 pd simplearp;
#X obj 179 34 s melzvolz;
#X obj 40 550 r melzvolz;
#X obj 126 550 r melzvolz;
#X obj 212 550 r melzvolz;
#X floatatom 291 420 3 0 0 0 - - - 0;
#X text 318 421 Octaver;
#X obj 291 366 octaver;
#X obj 291 342 r melzoctinit;
#X obj 22 10 r 8th;
#X obj 68 10 inlet;
#X text 108 9 On/Off;
#X obj 22 34 spigot, f 7;
#X connect 0 0 1 0;
#X connect 0 1 2 0;
#X connect 1 0 18 0;
#X connect 2 0 14 0;
#X connect 3 0 0 2;
#X connect 4 0 0 0;
#X connect 5 0 0 1;
#X connect 9 0 8 0;
#X connect 10 0 21 0;
#X connect 11 0 6 0;
#X connect 12 0 7 0;
#X connect 13 0 20 0;
#X connect 14 0 17 0;
#X connect 16 0 3 0;
#X connect 19 0 9 0;
#X connect 19 1 11 0;
#X connect 19 2 12 0;
#X connect 20 0 15 0;
#X connect 22 0 9 1;
#X connect 23 0 11 1;
#X connect 24 0 12 1;
#X connect 25 0 14 1;
#X connect 27 0 25 0;
#X connect 28 0 27 0;
#X connect 29 0 32 0;
#X connect 30 0 32 1;
#X connect 32 0 13 0;
#X restore 536 486 pd melz;
#X f 9;
#X obj 29 350 tgl 19 0 empty smplstoginit empty 22 10 0 10 #fcfcfc #000000 #000000 0 1;
#X text 100 373 Some samples;
#X obj 599 294 hsl 58 19 0 1 0 0 empty pbassvolinit empty -2 -10 0 12 #fcfcfc #000000 #000000 0 1;
#X obj 599 238 hsl 58 19 0 1 0 0 empty sbassvolinit empty -2 -10 0 12 #fcfcfc #000000 #000000 0 1;
#X obj 599 350 hsl 58 19 0 1 0 0 empty padsvolinit empty -2 -10 0 12 #fcfcfc #000000 #000000 0 1;
#X obj 599 406 hsl 58 19 0 1 0 0 empty blipsvolinit empty -2 -10 0 12 #fcfcfc #000000 #000000 0 1;
#X obj 599 462 hsl 58 19 0 1 0 0 empty melzvolinit empty -2 -10 0 12 #fcfcfc #000000 #000000 0 1;
#X obj 92 294 hsl 58 19 0 1 0 0 empty hatsvolinit empty -2 -10 0 12 #fcfcfc #000000 #000000 0 1;
#N canvas 66 25 814 747 smpls 0;
#X obj 596 12 inlet;
#X text 639 11 On/Off;
#X obj 11 63 simpler;
#X obj 11 238 throw~ samples;
#X obj 11 547 catch~ samples;
#X obj 122 39 r sampath1;
#X obj 206 63 simpler;
#X obj 206 238 throw~ samples;
#X obj 317 39 r sampath2;
#X obj 401 63 simpler;
#X obj 401 238 throw~ samples;
#X obj 512 39 r sampath3;
#X obj 11 323 simpler;
#X obj 11 498 throw~ samples;
#X obj 206 323 simpler;
#X obj 206 498 throw~ samples;
#X obj 401 323 simpler;
#X obj 401 498 throw~ samples;
#X obj 11 272 r sambang4;
#X obj 122 299 r sampath4;
#X obj 206 272 r sambang5;
#X obj 317 299 r sampath5;
#X obj 401 272 r sambang6;
#X obj 512 299 r sampath6;
#X obj 11 299 spigot;
#X obj 206 299 spigot;
#X obj 401 299 spigot;
#X obj 596 39 s stog;
#X obj 60 299 r stog;
#X obj 255 299 r stog;
#X obj 450 299 r stog;
#X obj 11 39 spigot;
#X obj 206 39 spigot;
#X obj 401 39 spigot;
#X obj 60 39 r stog;
#X obj 255 39 r stog;
#X obj 450 39 r stog;
#X obj 11 12 r sambang1;
#X obj 206 12 r sambang2;
#X obj 401 12 r sambang3;
#X obj 696 12 inlet;
#X obj 696 39 s svol;
#X obj 97 689 throw~ samples;
#X obj 97 582 simpledelay;
#X obj 201 557 tgl 19 0 empty samdelinit empty 0 -10 0 12 #fcfcfc #000000 #000000 0 1;
#X obj 305 557 r mstrbpm;
#X obj 410 557 r sdelpres;
#X obj 596 323 simpler;
#X obj 596 498 throw~ samples;
#X obj 596 299 spigot;
#X obj 645 299 r stog;
#X obj 596 272 r sambang7;
#X obj 707 299 r sampath7;
#N canvas 421 85 278 163 sambus 0;
#X obj 7 7 inlet~;
#X obj 93 130 throw~ left;
#X obj 179 130 throw~ right;
#X obj 7 130 throw~ all, f 11;
#X obj 7 104 *~;
#X obj 93 104 *~;
#X obj 179 104 *~;
#X obj 25 79 r svol;
#X obj 111 79 r svol;
#X obj 197 79 r svol;
#X obj 7 36 *~ 0.6;
#X obj 93 36 rev2~ 89 92 1000 10, f 20;
#X connect 0 0 10 0;
#X connect 0 0 11 0;
#X connect 4 0 3 0;
#X connect 5 0 1 0;
#X connect 6 0 2 0;
#X connect 7 0 4 1;
#X connect 8 0 5 1;
#X connect 9 0 6 1;
#X connect 10 0 4 0;
#X connect 11 0 5 0;
#X connect 11 1 6 0;
#X restore 11 689 pd sambus;
#X text 425 581 Delay unit;
#X obj 554 557 loadbang;
#X msg 554 582 \; samdelinit 1 \; sdelpres 0.8 3 50 5000;
#X connect 0 0 27 0;
#X connect 2 0 3 0;
#X connect 4 0 53 0;
#X connect 4 0 43 0;
#X connect 5 0 2 1;
#X connect 6 0 7 0;
#X connect 8 0 6 1;
#X connect 9 0 10 0;
#X connect 11 0 9 1;
#X connect 12 0 13 0;
#X connect 14 0 15 0;
#X connect 16 0 17 0;
#X connect 18 0 24 0;
#X connect 19 0 12 1;
#X connect 20 0 25 0;
#X connect 21 0 14 1;
#X connect 22 0 26 0;
#X connect 23 0 16 1;
#X connect 24 0 12 0;
#X connect 25 0 14 0;
#X connect 26 0 16 0;
#X connect 28 0 24 1;
#X connect 29 0 25 1;
#X connect 30 0 26 1;
#X connect 31 0 2 0;
#X connect 32 0 6 0;
#X connect 33 0 9 0;
#X connect 34 0 31 1;
#X connect 35 0 32 1;
#X connect 36 0 33 1;
#X connect 37 0 31 0;
#X connect 38 0 32 0;
#X connect 39 0 33 0;
#X connect 40 0 41 0;
#X connect 43 0 42 0;
#X connect 44 0 43 1;
#X connect 45 0 43 2;
#X connect 46 0 43 3;
#X connect 47 0 48 0;
#X connect 49 0 47 0;
#X connect 50 0 49 1;
#X connect 51 0 49 0;
#X connect 52 0 47 1;
#X connect 55 0 56 0;
#X restore 29 374 pd smpls;
#X f 9;
#X obj 92 350 hsl 58 19 0 1 0 0 empty smplsvolinit empty -2 -10 0 12 #fcfcfc #000000 #000000 0 1;
#X obj 447 146 s 1b;
#X text 607 261 Jump Up style bassline;
#X text 607 317 Pressure bassline, f 18;
#X text 607 373 Pads & Strings;
#X text 607 429 Some blips;
#X text 607 485 Simple arpeggio with fx;
#X text 478 381 -->>;
#X text 289 207 Global harmonic scale (used by/ forwarded to synths), f 28;
#X text 29 207 RHYTHMIC ELEMENTS;
#X text 533 207 SYNTHS, f 28;
#N canvas 213 208 848 369 presets 0;
#X obj 13 14 loadbang;
#X obj 13 37 t b b b b;
#X text 115 13 Note: BPM init needs to be last message \, otherwise tempo mismatch/ slicer abstractions run out of sync. Bug or conflict with local inits?;
#X msg 685 131 \; sbassfraukevar 0 \; pbassfraukevar 1 \; blipsfraukevar 0 \; padsoctinit 2 \; blipsoctinit 3 \; melzoctinit 2 \;;
#X msg 410 131 \; sampath1 ./WayVox.wav \; sampath2 ./WorriesVox.wav \; sampath3 ./WorriesSoundboy.wav \; sampath4 ./SoundMurdererPullUp.aif \; sampath5 ./DreamHey.wav \; sampath6 ./WhoRunVox.wav \; sampath7 ./CosmikRev.wav \;;
#X msg 170 131 \; break1init ./DNB_BREAK_25.wav \; break1pres 4 1 0 \; break2init ./DNB_BREAK_33.wav \; break2pres 4 1 0 \; break3init ./DNB_BREAK_24.wav \; break3pres 4 1 0 \; break4init ./DNB_BREAK_125.wav \; break4pres 4 1 0 \; break5init ./DNB_BREAK_106.wav \; break5pres 4 1 0 \; break6init ./DNB_BREAK_79.wav \; break6pres 4 1 0 \; swbanksinit 1 \; swbrchnginit 8 \;;
#X msg 13 131 \; basenoteinit 32 \; gloscaleinit 10 \; trackmodetoginit 1 \; pbassvolinit 0.8 \; sbassvolinit 0.7 \; padsvolinit 0.7 \; blipsvolinit 0.9 \; melzvolinit 0.9 \; hatsvolinit 0.7 \; smplsvolinit 0.9 \; bpminit 170 \;;
#X connect 0 0 1 0;
#X connect 1 0 6 0;
#X connect 1 1 5 0;
#X connect 1 2 4 0;
#X connect 1 3 3 0;
#X restore 29 19 pd presets;
#X connect 2 0 21 0;
#X connect 2 2 8 0;
#X connect 2 3 47 0;
#X connect 2 5 61 0;
#X connect 4 0 2 1;
#X connect 6 0 2 0;
#X connect 7 0 1 0;
#X connect 7 0 1 1;
#X connect 9 0 1 0;
#X connect 10 0 1 1;
#X connect 14 0 40 0;
#X connect 15 0 16 0;
#X connect 19 0 0 0;
#X connect 20 0 42 0;
#X connect 38 0 41 0;
#X connect 39 0 43 0;
#X connect 44 0 45 0;
#X connect 49 0 50 0;
#X connect 51 0 59 0;
#X connect 53 0 41 1;
#X connect 54 0 40 1;
#X connect 55 0 42 1;
#X connect 56 0 43 1;
#X connect 57 0 50 1;
#X connect 58 0 45 1;
#X connect 60 0 59 1;
