#N canvas 0 25 1119 477 12;
#X obj 15 23 inlet~;
#X obj 34 177 inlet;
#X obj 16 435 outlet~;
#X obj 16 233 hip~ 500;
#X obj 16 258 hip~ 500;
#X obj 16 283 hip~ 500;
#X obj 182 23 inlet;
#X obj 182 155 expr ($f1/0.6)*$f2;
#X obj 352 228 hradio 19 1 0 9 \$0-delset \$0-delsetinit Length -46 9 0 12 #fcfcfc #000000 #000000 0;
#X obj 273 23 r \$0-delset;
#X msg 350 74 0.75;
#X msg 311 74 0.66;
#X msg 427 74 1.33;
#X obj 16 74 r \$0-dellen;
#X obj 355 250 hsl 109 19 0.5 1.2 0 0 \$0-delfeed \$0-delfeedinit Feed -35 9 0 12 #fcfcfc #000000 #000000 0 1;
#X obj 634 153 loadbang;
#X obj 634 177 bng 19 250 50 0 empty empty empty 0 -10 0 12 #fcfcfc #000000 #000000;
#X obj 634 204 f \$0;
#X obj 182 181 s \$0-dellen;
#X obj 15 47 delwrite~ \$0-del 3000;
#X obj 16 98 delread~ \$0-del;
#X obj 182 127 f;
#X obj 273 108 t b f;
#X obj 34 126 r \$0-delfeed;
#X obj 16 152 *~;
#X obj 16 202 *~;
#X msg 273 74 0.5;
#X msg 388 74 1, f 1;
#X msg 465 74 1.5;
#X obj 352 272 nbx 4 19 -1e+37 1e+37 0 0 \$0-delhpf \$0-delhpfinit HP\ Filter -67 9 0 12 #fcfcfc #000000 #000000 0 256;
#X text 224 22 BPM;
#X text 75 176 Activate;
#X obj 634 23 inlet;
#X listbox 634 47 20 0 0 0 - - - 0;
#X obj 634 98 s \$0-delfeedinit;
#X obj 754 98 s \$0-delsetinit;
#X text 676 22 Preset;
#X obj 527 228 nbx 5 19 -1e+37 1e+37 0 0 empty \$0-dellen empty 0 -10 0 12 #fcfcfc #000000 #000000 0 256;
#X obj 16 387 clip~ -1 1;
#X obj 470 250 nbx 5 19 -1e+37 1e+37 0 0 empty \$0-delfeed empty 0 -10 0 12 #fcfcfc #000000 #000000 0 256;
#X obj 273 47 sel 0 1 2 3 4 5 6 7 8, f 50;
#X msg 504 74 2, f 1;
#X msg 542 74 3, f 1;
#X msg 581 74 4, f 1;
#X obj 16 308 lop~ 500;
#X obj 16 333 lop~ 500;
#X obj 16 358 lop~ 500;
#X obj 352 294 nbx 4 19 -1e+37 1e+37 0 0 \$0-dellpf \$0-dellpfinit LP\ Filter -67 9 0 12 #fcfcfc #000000 #000000 0 256;
#X obj 634 74 unpack f f f f, f 52;
#X obj 874 98 s \$0-delhpfinit;
#X obj 995 98 s \$0-dellpfinit;
#X obj 88 314 r \$0-dellpf;
#X obj 88 239 r \$0-delhpf;
#X msg 634 228 \; \$1-delfeedinit 0.8 \; \$1-delsetinit 3 \; \$1-delhpfinit 50 \; \$1-dellpfinit 2000 \;;
#X connect 0 0 19 0;
#X connect 1 0 25 1;
#X connect 3 0 4 0;
#X connect 4 0 5 0;
#X connect 5 0 44 0;
#X connect 6 0 21 0;
#X connect 7 0 18 0;
#X connect 9 0 40 0;
#X connect 10 0 22 0;
#X connect 11 0 22 0;
#X connect 12 0 22 0;
#X connect 13 0 20 0;
#X connect 15 0 16 0;
#X connect 16 0 17 0;
#X connect 17 0 53 0;
#X connect 20 0 24 0;
#X connect 21 0 7 0;
#X connect 22 0 21 0;
#X connect 22 1 7 1;
#X connect 23 0 24 1;
#X connect 24 0 25 0;
#X connect 25 0 3 0;
#X connect 26 0 22 0;
#X connect 27 0 22 0;
#X connect 28 0 22 0;
#X connect 32 0 33 0;
#X connect 33 0 48 0;
#X connect 38 0 2 0;
#X connect 40 0 26 0;
#X connect 40 1 11 0;
#X connect 40 2 10 0;
#X connect 40 3 27 0;
#X connect 40 4 12 0;
#X connect 40 5 28 0;
#X connect 40 6 41 0;
#X connect 40 7 42 0;
#X connect 40 8 43 0;
#X connect 41 0 22 0;
#X connect 42 0 22 0;
#X connect 43 0 22 0;
#X connect 44 0 45 0;
#X connect 45 0 46 0;
#X connect 46 0 38 0;
#X connect 48 0 34 0;
#X connect 48 1 35 0;
#X connect 48 2 49 0;
#X connect 48 3 50 0;
#X connect 51 0 44 1;
#X connect 51 0 45 1;
#X connect 51 0 46 1;
#X connect 52 0 3 1;
#X connect 52 0 5 1;
#X connect 52 0 4 1;
#X coords 0 -1 1 1 320 100 2 280 220;
