#N canvas 453 60 660 569 12;
#X obj 19 91 mtof;
#X obj 79 395 *~;
#X obj 168 344 vline~;
#X obj 79 531 outlet~;
#X obj 168 14 inlet;
#X obj 19 161 osc~;
#X obj 49 320 line;
#X obj 49 217 t f f;
#X obj 168 38 t b f;
#X obj 79 419 *~;
#X obj 345 220 hsl 86 16 1 3 0 0 \$0-sbod \$0-sbodin OD -27 8 0 12 #fcfcfc #000000 #000000 0 1;
#X obj 79 471 hip~ 5;
#X obj 510 170 loadbang;
#X msg 44 129 0.25;
#X obj 168 296 f;
#X obj 345 180 hsl 86 16 100 7000 0 0 \$0-sbrel \$0-sbrelin Rel -27 8 0 12 #fcfcfc #000000 #000000 0 1;
#X obj 345 200 hsl 86 16 1 3 0 0 \$0-sbacc \$0-sbaccin Acc -27 8 0 12 #fcfcfc #000000 #000000 0 1;
#X obj 49 272 pack f f f;
#X msg 49 296 \$2 \, \$1 \$3;
#X obj 108 419 r \$0-sbod;
#X obj 197 296 r \$0-sbrel;
#X obj 93 217 r \$0-sbacc;
#X obj 82 248 *, f 2;
#X obj 168 368 pow~ 2;
#X obj 312 14 inlet;
#X obj 312 91 s \$0-sbrelin;
#X obj 405 91 s \$0-sbaccin;
#X obj 497 91 s \$0-sbodin;
#X listbox 312 38 20 0 0 0 - - - 0;
#X obj 440 180 nbx 4 16 -1e+37 1e+37 0 0 empty \$0-sbrel empty 0 -10 0 12 #fcfcfc #000000 #000000 0 256;
#X obj 440 200 nbx 3 16 -1e+37 1e+37 0 0 empty \$0-sbacc empty 0 -10 0 12 #fcfcfc #000000 #000000 0 256;
#X obj 440 220 nbx 3 16 -1e+37 1e+37 0 0 empty \$0-sbod empty 0 -10 0 12 #fcfcfc #000000 #000000 0 256;
#X text 358 13 Preset inlet;
#X text 211 13 Note in;
#X obj 345 240 hsl 86 16 0.01 1 1 0 \$0-sbamp \$0-sbampinit Amp -27 8 0 12 #fcfcfc #000000 #000000 0 1;
#X obj 440 240 nbx 4 16 -1e+37 1e+37 0 0 empty \$0-sbamp empty 0 -10 0 12 #fcfcfc #000000 #000000 0 256;
#X obj 79 502 *~;
#X obj 108 502 r \$0-sbamp;
#X obj 510 194 f \$0;
#X obj 116 248 * 50;
#X obj 19 344 vcf~ 6, f 9;
#X obj 19 185 *~ 1;
#X msg 168 320 1.2 7 \, 0 \$1 18;
#X obj 79 443 expr~ atan($v1);
#X msg 510 219 \; \$1-sbrelin 2500 \; \$1-sbaccin 1.5 \; \$1-sbodin 2.5 \; \$1-sbampinit 0.3;
#X obj 312 61 unpack f f f;
#X connect 0 0 5 0;
#X connect 0 0 7 0;
#X connect 0 0 13 0;
#X connect 1 0 9 0;
#X connect 2 0 23 0;
#X connect 4 0 8 0;
#X connect 5 0 41 0;
#X connect 6 0 40 1;
#X connect 7 0 17 0;
#X connect 7 1 22 0;
#X connect 8 0 14 0;
#X connect 8 1 0 0;
#X connect 9 0 43 0;
#X connect 11 0 36 0;
#X connect 12 0 38 0;
#X connect 13 0 5 1;
#X connect 14 0 42 0;
#X connect 17 0 18 0;
#X connect 18 0 6 0;
#X connect 19 0 9 1;
#X connect 20 0 14 1;
#X connect 21 0 22 1;
#X connect 21 0 39 0;
#X connect 22 0 17 1;
#X connect 23 0 1 1;
#X connect 24 0 28 0;
#X connect 28 0 45 0;
#X connect 36 0 3 0;
#X connect 37 0 36 1;
#X connect 38 0 44 0;
#X connect 39 0 17 2;
#X connect 40 1 1 0;
#X connect 41 0 40 0;
#X connect 42 0 2 0;
#X connect 43 0 11 0;
#X connect 45 0 25 0;
#X connect 45 1 26 0;
#X connect 45 2 27 0;
#X coords 0 -1 1 1 190 100 2 310 170;
