#N canvas 63 88 329 285 12;
#X obj 19 116 +;
#X floatatom 19 140 4 0 0 0 - - - 0;
#X obj 19 188 pack f f;
#X obj 93 244 outlet~;
#X obj 100 92 inlet;
#X obj 100 116 unpack f f;
#X obj 37 34 bng 19 250 50 0 empty empty empty 0 -10 0 12 #fcfcfc #000000 #000000;
#X obj 19 164 makenote, f 12;
#X floatatom 59 140 4 0 0 0 - - - 0;
#X msg 59 116 15;
#X obj 37 58 expr random(-1 \, 1)* 12;
#X obj 19 11 inlet;
#X text 63 10 Note in;
#X text 201 57 Random -1 Octave;
#N canvas 63 88 450 571 strings 0;
#X obj 48 12 inlet;
#X obj 48 331 mtof;
#X obj 48 421 *~, f 12;
#X obj 48 531 outlet~;
#X obj 129 99 sel 0;
#X msg 129 149 0, f 1;
#X obj 270 149 / 127;
#X obj 129 260 line~;
#X obj 48 76 unpack f f, f 12;
#N canvas 0 25 466 293 oscs 0;
#X floatatom 19 132 5 0 0 0 - - - 0;
#X obj 19 155 sig~;
#X obj 19 183 +~, f 15;
#X obj 19 207 phasor~;
#X obj 19 231 expr~ $v1 > $v2, f 30;
#X obj 121 132 *~ 2;
#X obj 226 132 *~ 0.3;
#X obj 226 155 +~ 0.4;
#X text 158 107 Tremolo;
#X text 261 107 Pulsewidth oscillation, f 24;
#X obj 19 255 outlet~;
#X obj 19 108 inlet;
#X obj 226 6 loadbang;
#X obj 226 30 random 1000;
#X obj 226 54 * 0.0001;
#X obj 226 78 + 1;
#X obj 121 6 loadbang;
#X obj 121 30 random 1000;
#X obj 121 54 * 0.0001;
#X obj 121 78 + 4;
#X obj 226 108 osc~;
#X obj 121 108 osc~;
#X connect 0 0 1 0;
#X connect 1 0 2 0;
#X connect 2 0 3 0;
#X connect 3 0 4 0;
#X connect 4 0 10 0;
#X connect 5 0 2 1;
#X connect 6 0 7 0;
#X connect 7 0 4 1;
#X connect 11 0 0 0;
#X connect 12 0 13 0;
#X connect 13 0 14 0;
#X connect 14 0 15 0;
#X connect 15 0 20 0;
#X connect 16 0 17 0;
#X connect 17 0 18 0;
#X connect 18 0 19 0;
#X connect 19 0 21 0;
#X connect 20 0 6 0;
#X connect 21 0 5 0;
#X restore 108 373 pd oscs;
#X text 164 455 relative to frequency;
#X obj 123 12 inlet;
#X obj 223 12 inlet;
#X obj 148 432 * 10;
#X obj 48 308 line;
#X obj 48 188 spigot;
#X obj 87 168 tgl 15 0 empty empty empty 17 7 0 10 #fcfcfc #000000 #000000 0 1;
#X text 5 284 Slide;
#X obj 48 260 pack f f;
#X obj 48 212 t f f;
#X obj 148 477 * 2;
#X obj 125 501 vcf~ 12;
#X obj 80 236 + 1;
#X msg 48 284 \$2 \, \$1 100;
#X obj 108 350 * 1.0025;
#X obj 48 451 lop~;
#X obj 223 36 s \$0-strdec;
#X obj 123 36 s \$0-stratt;
#X obj 323 149 r \$0-stratt;
#X obj 182 149 r \$0-strdec;
#X obj 129 175 pack f f;
#X obj 270 175 pack f f;
#N canvas 0 25 466 293 oscs 0;
#X floatatom 19 132 5 0 0 0 - - - 0;
#X obj 19 155 sig~;
#X obj 19 183 +~, f 15;
#X obj 19 207 phasor~;
#X obj 19 231 expr~ $v1 > $v2, f 30;
#X obj 121 132 *~ 2;
#X obj 226 132 *~ 0.3;
#X obj 226 155 +~ 0.4;
#X text 158 107 Tremolo;
#X text 261 107 Pulsewidth oscillation, f 24;
#X obj 19 255 outlet~;
#X obj 19 108 inlet;
#X obj 226 6 loadbang;
#X obj 226 30 random 1000;
#X obj 226 54 * 0.0001;
#X obj 226 78 + 1;
#X obj 121 6 loadbang;
#X obj 121 30 random 1000;
#X obj 121 54 * 0.0001;
#X obj 121 78 + 4;
#X obj 226 108 osc~;
#X obj 121 108 osc~;
#X connect 0 0 1 0;
#X connect 1 0 2 0;
#X connect 2 0 3 0;
#X connect 3 0 4 0;
#X connect 4 0 10 0;
#X connect 5 0 2 1;
#X connect 6 0 7 0;
#X connect 7 0 4 1;
#X connect 11 0 0 0;
#X connect 12 0 13 0;
#X connect 13 0 14 0;
#X connect 14 0 15 0;
#X connect 15 0 20 0;
#X connect 16 0 17 0;
#X connect 17 0 18 0;
#X connect 18 0 19 0;
#X connect 19 0 21 0;
#X connect 20 0 6 0;
#X connect 21 0 5 0;
#X restore 48 373 pd oscs;
#N canvas 0 25 466 293 oscs 0;
#X floatatom 19 132 5 0 0 0 - - - 0;
#X obj 19 155 sig~;
#X obj 19 183 +~, f 15;
#X obj 19 207 phasor~;
#X obj 19 231 expr~ $v1 > $v2, f 30;
#X obj 121 132 *~ 2;
#X obj 226 132 *~ 0.3;
#X obj 226 155 +~ 0.4;
#X text 158 107 Tremolo;
#X text 261 107 Pulsewidth oscillation, f 24;
#X obj 19 255 outlet~;
#X obj 19 108 inlet;
#X obj 226 6 loadbang;
#X obj 226 30 random 1000;
#X obj 226 54 * 0.0001;
#X obj 226 78 + 1;
#X obj 121 6 loadbang;
#X obj 121 30 random 1000;
#X obj 121 54 * 0.0001;
#X obj 121 78 + 4;
#X obj 226 108 osc~;
#X obj 121 108 osc~;
#X connect 0 0 1 0;
#X connect 1 0 2 0;
#X connect 2 0 3 0;
#X connect 3 0 4 0;
#X connect 4 0 10 0;
#X connect 5 0 2 1;
#X connect 6 0 7 0;
#X connect 7 0 4 1;
#X connect 11 0 0 0;
#X connect 12 0 13 0;
#X connect 13 0 14 0;
#X connect 14 0 15 0;
#X connect 15 0 20 0;
#X connect 16 0 17 0;
#X connect 17 0 18 0;
#X connect 18 0 19 0;
#X connect 19 0 21 0;
#X connect 20 0 6 0;
#X connect 21 0 5 0;
#X restore 178 373 pd oscs;
#X obj 178 350 * 0.9975;
#X connect 0 0 8 0;
#X connect 1 0 13 0;
#X connect 1 0 24 0;
#X connect 1 0 32 0;
#X connect 1 0 34 0;
#X connect 2 0 25 0;
#X connect 4 0 5 0;
#X connect 4 1 6 0;
#X connect 4 1 16 0;
#X connect 5 0 16 0;
#X connect 5 0 30 0;
#X connect 6 0 31 0;
#X connect 7 0 2 1;
#X connect 8 0 15 0;
#X connect 8 1 4 0;
#X connect 9 0 2 0;
#X connect 11 0 27 0;
#X connect 12 0 26 0;
#X connect 13 0 20 0;
#X connect 13 0 25 1;
#X connect 14 0 1 0;
#X connect 15 0 19 0;
#X connect 16 0 15 1;
#X connect 18 0 23 0;
#X connect 19 0 18 0;
#X connect 19 1 22 0;
#X connect 20 0 21 1;
#X connect 21 0 3 0;
#X connect 22 0 18 1;
#X connect 23 0 14 0;
#X connect 24 0 9 0;
#X connect 25 0 3 0;
#X connect 25 0 21 0;
#X connect 28 0 31 1;
#X connect 29 0 30 1;
#X connect 30 0 7 0;
#X connect 31 0 7 0;
#X connect 32 0 2 0;
#X connect 33 0 2 0;
#X connect 34 0 33 0;
#X restore 93 218 pd strings;
#X text 142 91 Attack and Release values;
#X connect 0 0 1 0;
#X connect 1 0 7 0;
#X connect 2 0 14 0;
#X connect 4 0 5 0;
#X connect 4 0 9 0;
#X connect 5 0 7 2;
#X connect 5 0 14 1;
#X connect 5 1 14 2;
#X connect 6 0 10 0;
#X connect 7 0 2 0;
#X connect 7 1 2 1;
#X connect 8 0 7 1;
#X connect 9 0 8 0;
#X connect 10 0 0 1;
#X connect 11 0 6 0;
#X connect 11 0 0 0;
#X connect 14 0 3 0;
