#N canvas 0 80 1066 636 12;
#X obj 33 173 hsl 570 23 0 224 0 0 empty tpos Track_position -2 -8 0 10 #000000 #ffffff #000000 0 1;
#X text 27 22 MAIN TRACK ARRANGEMENT SCHEME;
#X obj 700 99 + 1;
#X obj 700 149 sel 0;
#X obj 728 237 + 1;
#X floatatom 60 340 5 0 0 0 - - - 0;
#X obj 110 312 +;
#X floatatom 110 340 5 0 0 0 - - - 0;
#X obj 167 312 +;
#X floatatom 167 340 5 0 0 0 - - - 0;
#X obj 224 312 +;
#X floatatom 224 340 5 0 0 0 - - - 0;
#X obj 281 312 +;
#X floatatom 281 340 5 0 0 0 - - - 0;
#X obj 338 312 +;
#X floatatom 338 340 5 0 0 0 - - - 0;
#X obj 395 312 +;
#X floatatom 395 340 5 0 0 0 - - - 0;
#X obj 452 312 +;
#X floatatom 452 340 5 0 0 0 - - - 0;
#X obj 509 312 +;
#X floatatom 509 340 5 0 0 0 - - - 0;
#X obj 96 289 t b f;
#X obj 153 289 t b f;
#X obj 210 289 t b f;
#X obj 267 289 t b f;
#X obj 324 289 t b f;
#X obj 381 289 t b f;
#X obj 438 289 t b f;
#X obj 495 289 t b f;
#X text 235 53 INTRO;
#X text 387 53 MAIN PART;
#X text 539 53 OUTRO;
#X obj 915 20 loadbang;
#X obj 30 200 bng 15 250 50 0 resetout resetin Reset_(track_position) 17 7 0 10 #fcfcfc #000000 #000000;
#X obj 78 461 tgl 15 0 empty empty empty 17 7 0 10 #fcfcfc #000000 #000000 0 1;
#N canvas 709 358 349 198 xp 0;
#X obj 22 21 inlet;
#X obj 22 159 outlet;
#X obj 153 21 inlet;
#X obj 285 21 inlet;
#X msg 72 101 color #000000 #ffffff;
#X msg 72 122 color #ffffff #000000;
#X obj 22 45 expr if($f1 >= $f2 && $f1 < $f3 \, 1 \, 0);
#X obj 49 74 sel 0 1;
#X obj 72 159 s 6i;
#X connect 0 0 6 0;
#X connect 2 0 6 1;
#X connect 3 0 6 2;
#X connect 4 0 8 0;
#X connect 5 0 8 0;
#X connect 6 0 1 0;
#X connect 6 0 7 0;
#X connect 7 0 5 0;
#X connect 7 1 4 0;
#X restore 306 435 pd xp;
#X obj 135 461 tgl 15 0 empty empty empty 17 7 0 10 #fcfcfc #000000 #000000 0 1;
#X obj 192 461 tgl 15 0 empty empty empty 17 7 0 10 #fcfcfc #000000 #000000 0 1;
#X obj 249 461 tgl 15 0 empty empty empty 17 7 0 10 #fcfcfc #000000 #000000 0 1;
#X obj 306 461 tgl 15 0 empty empty empty 17 7 0 10 #fcfcfc #000000 #000000 0 1;
#X obj 363 461 tgl 15 0 empty empty empty 17 7 0 10 #fcfcfc #000000 #000000 0 1;
#X obj 420 461 tgl 15 0 empty empty empty 17 7 0 10 #fcfcfc #000000 #000000 0 1;
#X obj 477 461 tgl 15 0 empty empty empty 17 7 0 10 #fcfcfc #000000 #000000 0 1;
#N canvas 691 283 332 185 xp0 0;
#X obj 22 21 inlet;
#X obj 22 145 outlet;
#X obj 271 21 inlet;
#X obj 22 45 expr if($f1 >= 0 && $f1 < $f2 \, 1 \, 0);
#X msg 91 96 color #000000 #ffffff;
#X msg 91 117 color #ffffff #000000;
#X obj 68 69 sel 0 1;
#X obj 91 145 s 1i;
#X connect 0 0 3 0;
#X connect 2 0 3 1;
#X connect 3 0 1 0;
#X connect 3 0 6 0;
#X connect 4 0 7 0;
#X connect 5 0 7 0;
#X connect 6 0 5 0;
#X connect 6 1 4 0;
#X restore 21 435 pd xp0;
#X obj 21 461 tgl 15 0 empty empty empty 17 7 0 10 #fcfcfc #000000 #000000 0 1;
#X obj 700 73 i;
#X obj 700 237 i;
#X obj 700 20 inlet;
#X obj 700 262 s cbar;
#X obj 700 125 mod;
#X obj 730 99 r barlength;
#X obj 30 68 hradio 19 1 0 2 presetout presetin Preset 0 -10 0 12 #fcfcfc #000000 #000000 0;
#X obj 915 120 r presetout;
#X obj 915 143 sel 0 1;
#X obj 21 391 r cbar;
#X obj 519 362 s ttl;
#X obj 238 77 nbx 3 16 -1e+37 1e+37 0 0 1o 1i DJ\ intro 45 9 0 12 #000000 #ffffff #000000 0 256;
#X obj 238 99 nbx 3 16 -1e+37 1e+37 0 0 2o 2i Intro\ main 45 9 0 12 #ffffff #000000 #000000 0 256;
#X obj 238 121 nbx 3 16 -1e+37 1e+37 0 0 3o 3i Intro\ break 45 9 0 12 #ffffff #000000 #000000 0 256;
#X obj 389 77 nbx 3 16 -1e+37 1e+37 0 0 4o 4i Drop\ main 45 9 0 12 #ffffff #000000 #000000 0 256;
#X obj 389 99 nbx 3 16 -1e+37 1e+37 0 0 5o 5i Drop\ vari 45 9 0 12 #ffffff #000000 #000000 0 256;
#X obj 389 121 nbx 3 16 -1e+37 1e+37 0 0 6o 6i Drop\ break 45 9 0 12 #ffffff #000000 #000000 0 256;
#X obj 389 143 nbx 3 16 -1e+37 1e+37 0 0 7o 7i Breakdown\ redux 45 9 0 12 #ffffff #000000 #000000 0 256;
#X obj 541 77 nbx 3 16 -1e+37 1e+37 0 0 8o 8i Drop\ 2 45 9 0 12 #ffffff #000000 #000000 0 256;
#X obj 541 99 nbx 3 16 -1e+37 1e+37 0 0 9o 9i DJ\ outro 45 9 0 12 #ffffff #000000 #000000 0 256;
#X obj 606 173 nbx 3 23 -1e+37 1e+37 0 0 empty cbar empty 45 9 0 16 #000000 #ffffff #000000 0 256;
#N canvas 709 358 349 198 xp 0;
#X obj 22 21 inlet;
#X obj 22 159 outlet;
#X obj 153 21 inlet;
#X obj 285 21 inlet;
#X msg 72 101 color #000000 #ffffff;
#X msg 72 122 color #ffffff #000000;
#X obj 22 45 expr if($f1 >= $f2 && $f1 < $f3 \, 1 \, 0);
#X obj 49 74 sel 0 1;
#X obj 72 159 s 2i;
#X connect 0 0 6 0;
#X connect 2 0 6 1;
#X connect 3 0 6 2;
#X connect 4 0 8 0;
#X connect 5 0 8 0;
#X connect 6 0 1 0;
#X connect 6 0 7 0;
#X connect 7 0 5 0;
#X connect 7 1 4 0;
#X restore 78 435 pd xp;
#N canvas 709 358 349 198 xp 0;
#X obj 22 21 inlet;
#X obj 22 159 outlet;
#X obj 153 21 inlet;
#X obj 285 21 inlet;
#X msg 72 101 color #000000 #ffffff;
#X msg 72 122 color #ffffff #000000;
#X obj 22 45 expr if($f1 >= $f2 && $f1 < $f3 \, 1 \, 0);
#X obj 49 74 sel 0 1;
#X obj 72 159 s 3i;
#X connect 0 0 6 0;
#X connect 2 0 6 1;
#X connect 3 0 6 2;
#X connect 4 0 8 0;
#X connect 5 0 8 0;
#X connect 6 0 1 0;
#X connect 6 0 7 0;
#X connect 7 0 5 0;
#X connect 7 1 4 0;
#X restore 135 435 pd xp;
#N canvas 709 358 349 198 xp 0;
#X obj 22 21 inlet;
#X obj 22 159 outlet;
#X obj 153 21 inlet;
#X obj 285 21 inlet;
#X msg 72 101 color #000000 #ffffff;
#X msg 72 122 color #ffffff #000000;
#X obj 22 45 expr if($f1 >= $f2 && $f1 < $f3 \, 1 \, 0);
#X obj 49 74 sel 0 1;
#X obj 72 159 s 4i;
#X connect 0 0 6 0;
#X connect 2 0 6 1;
#X connect 3 0 6 2;
#X connect 4 0 8 0;
#X connect 5 0 8 0;
#X connect 6 0 1 0;
#X connect 6 0 7 0;
#X connect 7 0 5 0;
#X connect 7 1 4 0;
#X restore 192 435 pd xp;
#N canvas 709 358 349 198 xp 0;
#X obj 22 21 inlet;
#X obj 22 159 outlet;
#X obj 153 21 inlet;
#X obj 285 21 inlet;
#X msg 72 101 color #000000 #ffffff;
#X msg 72 122 color #ffffff #000000;
#X obj 22 45 expr if($f1 >= $f2 && $f1 < $f3 \, 1 \, 0);
#X obj 49 74 sel 0 1;
#X obj 72 159 s 5i;
#X connect 0 0 6 0;
#X connect 2 0 6 1;
#X connect 3 0 6 2;
#X connect 4 0 8 0;
#X connect 5 0 8 0;
#X connect 6 0 1 0;
#X connect 6 0 7 0;
#X connect 7 0 5 0;
#X connect 7 1 4 0;
#X restore 249 435 pd xp;
#N canvas 709 358 349 198 xp 0;
#X obj 22 21 inlet;
#X obj 22 159 outlet;
#X obj 153 21 inlet;
#X obj 285 21 inlet;
#X msg 72 101 color #000000 #ffffff;
#X msg 72 122 color #ffffff #000000;
#X obj 22 45 expr if($f1 >= $f2 && $f1 < $f3 \, 1 \, 0);
#X obj 49 74 sel 0 1;
#X obj 72 159 s 9i;
#X connect 0 0 6 0;
#X connect 2 0 6 1;
#X connect 3 0 6 2;
#X connect 4 0 8 0;
#X connect 5 0 8 0;
#X connect 6 0 1 0;
#X connect 6 0 7 0;
#X connect 7 0 5 0;
#X connect 7 1 4 0;
#X restore 477 435 pd xp;
#N canvas 709 358 349 198 xp 0;
#X obj 22 21 inlet;
#X obj 22 159 outlet;
#X obj 153 21 inlet;
#X obj 285 21 inlet;
#X msg 72 101 color #000000 #ffffff;
#X msg 72 122 color #ffffff #000000;
#X obj 22 45 expr if($f1 >= $f2 && $f1 < $f3 \, 1 \, 0);
#X obj 49 74 sel 0 1;
#X obj 72 159 s 7i;
#X connect 0 0 6 0;
#X connect 2 0 6 1;
#X connect 3 0 6 2;
#X connect 4 0 8 0;
#X connect 5 0 8 0;
#X connect 6 0 1 0;
#X connect 6 0 7 0;
#X connect 7 0 5 0;
#X connect 7 1 4 0;
#X restore 363 435 pd xp;
#N canvas 709 358 349 198 xp 0;
#X obj 22 21 inlet;
#X obj 22 159 outlet;
#X obj 153 21 inlet;
#X obj 285 21 inlet;
#X msg 72 101 color #000000 #ffffff;
#X msg 72 122 color #ffffff #000000;
#X obj 22 45 expr if($f1 >= $f2 && $f1 < $f3 \, 1 \, 0);
#X obj 49 74 sel 0 1;
#X obj 72 159 s 8i;
#X connect 0 0 6 0;
#X connect 2 0 6 1;
#X connect 3 0 6 2;
#X connect 4 0 8 0;
#X connect 5 0 8 0;
#X connect 6 0 1 0;
#X connect 6 0 7 0;
#X connect 7 0 5 0;
#X connect 7 1 4 0;
#X restore 420 435 pd xp;
#X obj 21 485 outlet;
#X obj 78 485 outlet;
#X obj 135 485 outlet;
#X obj 192 485 outlet;
#X obj 249 485 outlet;
#X obj 306 485 outlet;
#X obj 363 485 outlet;
#X obj 420 485 outlet;
#X obj 477 485 outlet;
#X msg 915 166 \; 1i 16 \; 2i 32 \; 3i 16 \; 4i 32 \; 5i 32 \; 6i 16 \; 7i 16 \; 8i 32 \; 9i 32, f 7;
#X obj 60 266 r 1o;
#X obj 96 266 r 2o;
#X obj 153 266 r 3o;
#X obj 210 266 r 4o;
#X obj 267 266 r 5o;
#X obj 324 266 r 6o;
#X obj 381 266 r 7o;
#X obj 438 266 r 8o;
#X obj 495 266 r 9o;
#X msg 981 166 \; 1i 32 \; 2i 64 \; 3i 32 \; 4i 64 \; 5i 64 \; 6i 32 \; 7i 32 \; 8i 64 \; 9i 64, f 7;
#N canvas 121 146 303 99 sliderdef 0;
#X msg 72 40 range 0 \$1;
#X obj 16 17 r cbar;
#X obj 72 17 r ttl;
#X obj 16 40 s tpos;
#X obj 72 63 s tpos;
#X text 169 16 Define slider length and show position, f 13;
#X connect 0 0 4 0;
#X connect 1 0 3 0;
#X connect 2 0 0 0;
#X restore 135 228 pd sliderdef;
#N canvas 582 476 509 113 trackreset 0;
#X obj 259 58 sel 1;
#X obj 259 35 >=;
#X obj 311 12 r ttl;
#X obj 259 12 r cbar;
#X obj 259 81 s resetin;
#X text 367 11 Reset track position to 0 when total track length is reached., f 14;
#X obj 17 12 r resetout;
#X text 112 11 Do this to reset the track (e.g. when the reset button is being hit., f 16;
#X msg 17 36 \; jbpos 0 \;;
#X connect 0 0 4 0;
#X connect 1 0 0 0;
#X connect 2 0 1 1;
#X connect 3 0 1 0;
#X connect 6 0 8 0;
#X restore 30 228 pd trackreset;
#X obj 30 112 nbx 2 19 -1e+37 1e+37 0 0 barlength barlengthinit Bar\ length\ (meter) 0 -10 0 12 #fcfcfc #000000 #000000 0 256;
#X obj 815 20 inlet;
#X obj 815 43 s resetin;
#X obj 177 363 s 4it;
#X obj 70 363 s 2it;
#X obj 120 363 s 3it;
#X obj 234 362 s 5it;
#X obj 291 362 s 6it;
#X obj 348 362 s 7it;
#X obj 405 362 s 8it;
#X obj 462 362 s 9it;
#N canvas 253 125 825 131 jumppos 0;
#X obj 17 18 r 2itb;
#X obj 17 42 f;
#X obj 68 18 r 2it;
#X obj 117 42 f;
#X obj 117 18 r 3itb;
#X obj 168 18 r 3it;
#X obj 217 42 f;
#X obj 317 42 f;
#X obj 217 18 r 4itb;
#X obj 268 18 r 4it;
#X obj 317 18 r 5itb;
#X obj 368 18 r 5it;
#X obj 417 42 f;
#X obj 517 42 f;
#X obj 617 42 f;
#X obj 717 42 f;
#X obj 417 18 r 6itb;
#X obj 468 18 r 6it;
#X obj 517 18 r 7itb;
#X obj 568 18 r 7it;
#X obj 617 18 r 8itb;
#X obj 668 18 r 8it;
#X obj 717 18 r 9itb;
#X obj 768 18 r 9it;
#X obj 317 96 s jbpos;
#X connect 0 0 1 0;
#X connect 1 0 24 0;
#X connect 2 0 1 1;
#X connect 3 0 24 0;
#X connect 4 0 3 0;
#X connect 5 0 3 1;
#X connect 6 0 24 0;
#X connect 7 0 24 0;
#X connect 8 0 6 0;
#X connect 9 0 6 1;
#X connect 10 0 7 0;
#X connect 11 0 7 1;
#X connect 12 0 24 0;
#X connect 13 0 24 0;
#X connect 14 0 24 0;
#X connect 15 0 24 0;
#X connect 16 0 12 0;
#X connect 17 0 12 1;
#X connect 18 0 13 0;
#X connect 19 0 13 1;
#X connect 20 0 14 0;
#X connect 21 0 14 1;
#X connect 22 0 15 0;
#X connect 23 0 15 1;
#X restore 233 228 pd jumppos;
#X obj 710 173 r jbpos;
#X obj 222 77 bng 16 250 50 0 resetin 1itbinit empty 0 -10 0 12 #fcfcfc #000000 #000000;
#X obj 222 99 bng 16 250 50 0 2itb 2itbinit empty 0 -10 0 12 #fcfcfc #000000 #000000;
#X obj 222 121 bng 16 250 50 0 3itb 3itbinit empty 0 -10 0 12 #fcfcfc #000000 #000000;
#X obj 373 77 bng 16 250 50 0 4itb 4itbinit empty 0 -10 0 12 #fcfcfc #000000 #000000;
#X obj 373 99 bng 16 250 50 0 5itb 5itbinit empty 0 -10 0 12 #fcfcfc #000000 #000000;
#X obj 373 121 bng 16 250 50 0 6itb 6itbinit empty 0 -10 0 12 #fcfcfc #000000 #000000;
#X obj 373 143 bng 16 250 50 0 7itb 7itbinit empty 0 -10 0 12 #fcfcfc #000000 #000000;
#X obj 525 77 bng 16 250 50 0 8itb 8itbinit empty 0 -10 0 12 #fcfcfc #000000 #000000;
#X obj 525 99 bng 16 250 50 0 9itb 9itbinit empty 0 -10 0 12 #fcfcfc #000000 #000000;
#X obj 718 49 r mres;
#X msg 720 198 \; mres 0;
#N canvas 129 275 777 109 xbars 0;
#N canvas 525 390 546 187 xbarskey1 0;
#X obj 80 53 r 2it;
#X obj 140 53 r 3it;
#X obj 200 53 r 4it;
#X obj 260 53 r 5it;
#X obj 320 53 r 6it;
#X obj 380 53 r 7it;
#X obj 440 53 r 8it;
#X obj 498 53 r 9it;
#X obj 62 84 ==;
#X obj 122 84 ==;
#X obj 182 84 ==;
#X obj 242 84 ==;
#X obj 302 84 ==;
#X obj 362 84 ==;
#X obj 422 84 ==;
#X obj 480 84 ==;
#X obj 242 16 r cbar;
#X obj 242 127 sel 1;
#X obj 242 151 outlet;
#X obj 12 84 == 0;
#X connect 0 0 8 1;
#X connect 1 0 9 1;
#X connect 2 0 10 1;
#X connect 3 0 11 1;
#X connect 4 0 12 1;
#X connect 5 0 13 1;
#X connect 6 0 14 1;
#X connect 7 0 15 1;
#X connect 8 0 17 0;
#X connect 9 0 17 0;
#X connect 10 0 17 0;
#X connect 11 0 17 0;
#X connect 12 0 17 0;
#X connect 13 0 17 0;
#X connect 14 0 17 0;
#X connect 15 0 17 0;
#X connect 16 0 8 0;
#X connect 16 0 14 0;
#X connect 16 0 13 0;
#X connect 16 0 12 0;
#X connect 16 0 11 0;
#X connect 16 0 10 0;
#X connect 16 0 9 0;
#X connect 16 0 19 0;
#X connect 16 0 15 0;
#X connect 17 0 18 0;
#X connect 19 0 17 0;
#X restore 18 24 pd xbarskey1;
#N canvas 418 200 514 199 xbarstrans 0;
#X obj 36 53 r 2it;
#X obj 96 53 r 3it;
#X obj 156 53 r 4it;
#X obj 216 53 r 5it;
#X obj 276 53 r 6it;
#X obj 336 53 r 7it;
#X obj 396 53 r 8it;
#X obj 456 53 r 9it;
#X obj 18 99 ==;
#X obj 78 99 ==;
#X obj 138 99 ==;
#X obj 198 99 ==;
#X obj 258 99 ==;
#X obj 318 99 ==;
#X obj 378 99 ==;
#X obj 438 99 ==;
#X obj 198 16 r cbar;
#X obj 198 137 sel 1;
#X obj 198 161 outlet;
#X obj 36 76 - 4;
#X obj 96 76 - 4;
#X obj 156 76 - 4;
#X obj 216 76 - 4;
#X obj 276 76 - 4;
#X obj 336 76 - 4;
#X obj 396 76 - 4;
#X obj 456 76 - 4;
#X connect 0 0 19 0;
#X connect 1 0 20 0;
#X connect 2 0 21 0;
#X connect 3 0 22 0;
#X connect 4 0 23 0;
#X connect 5 0 24 0;
#X connect 6 0 25 0;
#X connect 7 0 26 0;
#X connect 8 0 17 0;
#X connect 9 0 17 0;
#X connect 10 0 17 0;
#X connect 11 0 17 0;
#X connect 12 0 17 0;
#X connect 13 0 17 0;
#X connect 14 0 17 0;
#X connect 15 0 17 0;
#X connect 16 0 8 0;
#X connect 16 0 15 0;
#X connect 16 0 14 0;
#X connect 16 0 13 0;
#X connect 16 0 12 0;
#X connect 16 0 11 0;
#X connect 16 0 10 0;
#X connect 16 0 9 0;
#X connect 17 0 18 0;
#X connect 19 0 8 1;
#X connect 20 0 9 1;
#X connect 21 0 10 1;
#X connect 22 0 11 1;
#X connect 23 0 12 1;
#X connect 24 0 13 1;
#X connect 25 0 14 1;
#X connect 26 0 15 1;
#X restore 246 24 pd xbarstrans;
#X text 111 23 Bang on each bar no.s a new track section's start., f 16;
#X obj 18 48 bng 19 250 50 0 empty empty empty 0 -10 0 12 #fcfcfc #000000 #000000;
#X obj 18 72 outlet;
#X obj 246 48 bng 19 250 50 0 empty empty empty 0 -10 0 12 #fcfcfc #000000 #000000;
#X obj 246 72 outlet;
#X text 347 23 Bang on each bar 4 bar lengths ahead of section changes (aka intersections), f 21;
#X obj 516 48 bng 19 250 50 0 empty empty empty 0 -10 0 12 #fcfcfc #000000 #000000;
#X obj 516 72 outlet;
#N canvas 418 200 514 199 xbarsclean 0;
#X obj 36 53 r 2it;
#X obj 96 53 r 3it;
#X obj 156 53 r 4it;
#X obj 216 53 r 5it;
#X obj 276 53 r 6it;
#X obj 336 53 r 7it;
#X obj 396 53 r 8it;
#X obj 456 53 r 9it;
#X obj 18 99 ==;
#X obj 78 99 ==;
#X obj 138 99 ==;
#X obj 198 99 ==;
#X obj 258 99 ==;
#X obj 318 99 ==;
#X obj 378 99 ==;
#X obj 438 99 ==;
#X obj 198 16 r cbar;
#X obj 198 137 sel 1;
#X obj 198 161 outlet;
#X obj 36 76 - 1;
#X obj 96 76 - 1;
#X obj 156 76 - 1;
#X obj 216 76 - 1;
#X obj 276 76 - 1;
#X obj 336 76 - 1;
#X obj 396 76 - 1;
#X obj 456 76 - 1;
#X connect 0 0 19 0;
#X connect 1 0 20 0;
#X connect 2 0 21 0;
#X connect 3 0 22 0;
#X connect 4 0 23 0;
#X connect 5 0 24 0;
#X connect 6 0 25 0;
#X connect 7 0 26 0;
#X connect 8 0 17 0;
#X connect 9 0 17 0;
#X connect 10 0 17 0;
#X connect 11 0 17 0;
#X connect 12 0 17 0;
#X connect 13 0 17 0;
#X connect 14 0 17 0;
#X connect 15 0 17 0;
#X connect 16 0 8 0;
#X connect 16 0 15 0;
#X connect 16 0 14 0;
#X connect 16 0 13 0;
#X connect 16 0 12 0;
#X connect 16 0 11 0;
#X connect 16 0 10 0;
#X connect 16 0 9 0;
#X connect 17 0 18 0;
#X connect 19 0 8 1;
#X connect 20 0 9 1;
#X connect 21 0 10 1;
#X connect 22 0 11 1;
#X connect 23 0 12 1;
#X connect 24 0 13 1;
#X connect 25 0 14 1;
#X connect 26 0 15 1;
#X restore 516 24 pd xbarsclean;
#X text 617 23 Bang on each bar 1 bar length ahead of section changes., f 21;
#X connect 0 0 3 0;
#X connect 1 0 5 0;
#X connect 3 0 4 0;
#X connect 5 0 6 0;
#X connect 8 0 9 0;
#X connect 10 0 8 0;
#X restore 574 435 pd xbars;
#X f 16;
#X text 19 518 Trackbuilder allows defining sections in a larger composition or track and - while running - outputs 1s when the respective section is active through its dedicated outlet (0s \, if not). Calculation is done based on bangs from first inlet \, the global bar length (suggestion: use equal note value units that come in through the first inlet as bangs) and the number of bars within one section. Jump to track sections by hitting the triggers next to the bar length number boxes., f 71;
#X obj 574 485 outlet;
#X obj 628 485 outlet;
#X obj 574 459 bng 19 250 50 0 empty empty empty 0 -10 0 12 #fcfcfc #000000 #000000;
#X obj 628 459 bng 19 250 50 0 empty empty empty 0 -10 0 12 #fcfcfc #000000 #000000;
#X obj 683 485 outlet;
#X obj 683 459 bng 19 250 50 0 empty empty empty 0 -10 0 12 #fcfcfc #000000 #000000;
#X text 572 518 Bang on bar no.s of section starts and intersections (4 bars & 1 bar offset to section starts) to e.g. trigger sample playbacks or preset changes on these events., f 39;
#X msg 915 43 \; presetin 0 \; barlengthinit 8 \; 1itbinit bang;
#X obj 784 435 r cbar;
#X obj 784 485 outlet;
#X text 835 485 Send out current bar;
#X connect 2 0 50 0;
#X connect 3 0 47 0;
#X connect 4 0 47 1;
#X connect 5 0 6 0;
#X connect 5 0 44 1;
#X connect 5 0 67 1;
#X connect 5 0 100 0;
#X connect 6 0 7 0;
#X connect 7 0 8 0;
#X connect 7 0 67 2;
#X connect 7 0 68 1;
#X connect 7 0 101 0;
#X connect 8 0 9 0;
#X connect 9 0 10 0;
#X connect 9 0 68 2;
#X connect 9 0 69 1;
#X connect 9 0 99 0;
#X connect 10 0 11 0;
#X connect 11 0 12 0;
#X connect 11 0 69 2;
#X connect 11 0 70 1;
#X connect 11 0 102 0;
#X connect 12 0 13 0;
#X connect 13 0 14 0;
#X connect 13 0 36 1;
#X connect 13 0 70 2;
#X connect 13 0 103 0;
#X connect 14 0 15 0;
#X connect 15 0 16 0;
#X connect 15 0 36 2;
#X connect 15 0 72 1;
#X connect 15 0 104 0;
#X connect 16 0 17 0;
#X connect 17 0 18 0;
#X connect 17 0 72 2;
#X connect 17 0 73 1;
#X connect 17 0 105 0;
#X connect 18 0 19 0;
#X connect 19 0 20 0;
#X connect 19 0 73 2;
#X connect 19 0 71 1;
#X connect 19 0 106 0;
#X connect 20 0 21 0;
#X connect 21 0 56 0;
#X connect 21 0 71 2;
#X connect 22 0 5 0;
#X connect 22 1 6 1;
#X connect 23 0 5 0;
#X connect 23 1 8 1;
#X connect 24 0 5 0;
#X connect 24 1 10 1;
#X connect 25 0 5 0;
#X connect 25 1 12 1;
#X connect 26 0 5 0;
#X connect 26 1 14 1;
#X connect 27 0 5 0;
#X connect 27 1 16 1;
#X connect 28 0 5 0;
#X connect 28 1 18 1;
#X connect 29 0 5 0;
#X connect 29 1 20 1;
#X connect 33 0 129 0;
#X connect 35 0 75 0;
#X connect 36 0 40 0;
#X connect 37 0 76 0;
#X connect 38 0 77 0;
#X connect 39 0 78 0;
#X connect 40 0 79 0;
#X connect 41 0 80 0;
#X connect 42 0 81 0;
#X connect 43 0 82 0;
#X connect 44 0 45 0;
#X connect 45 0 74 0;
#X connect 46 0 2 0;
#X connect 47 0 4 0;
#X connect 47 0 49 0;
#X connect 48 0 46 0;
#X connect 50 0 3 0;
#X connect 50 0 46 1;
#X connect 51 0 50 1;
#X connect 53 0 54 0;
#X connect 54 0 83 0;
#X connect 54 1 93 0;
#X connect 55 0 44 0;
#X connect 55 0 36 0;
#X connect 55 0 67 0;
#X connect 55 0 73 0;
#X connect 55 0 72 0;
#X connect 55 0 71 0;
#X connect 55 0 70 0;
#X connect 55 0 69 0;
#X connect 55 0 68 0;
#X connect 67 0 35 0;
#X connect 68 0 37 0;
#X connect 69 0 38 0;
#X connect 70 0 39 0;
#X connect 71 0 43 0;
#X connect 72 0 41 0;
#X connect 73 0 42 0;
#X connect 84 0 5 0;
#X connect 85 0 22 0;
#X connect 86 0 23 0;
#X connect 87 0 24 0;
#X connect 88 0 25 0;
#X connect 89 0 26 0;
#X connect 90 0 27 0;
#X connect 91 0 28 0;
#X connect 92 0 29 0;
#X connect 97 0 98 0;
#X connect 108 0 47 0;
#X connect 108 0 119 0;
#X connect 118 0 46 1;
#X connect 120 0 124 0;
#X connect 120 1 125 0;
#X connect 120 2 127 0;
#X connect 124 0 122 0;
#X connect 125 0 123 0;
#X connect 127 0 126 0;
#X connect 130 0 131 0;
#X coords 0 -1 1 1 650 200 2 20 20;
